<svg width="449" height="112" viewBox="0 0 449 112" fill="none" xmlns="http://www.w3.org/2000/svg">
<rect width="65" height="65" rx="32.5" fill="#415D48"/>
<path d="M23.45 43.6897C23.0647 44.2299 22.2698 44.2519 21.8552 43.7339L10.5762 29.6421C10.1759 29.1419 9.41506 29.1419 9.01474 29.6421L6.00015 33.4084C5.70778 33.7737 5.70778 34.2929 6.00015 34.6582L21.9011 54.5246C22.3014 55.0247 23.0622 55.0247 23.4625 54.5246L57.7899 11.6366C58.3725 10.9087 57.7299 9.84986 56.8153 10.0307L46.3129 12.1065C46.0627 12.156 45.8408 12.2992 45.6927 12.5068L23.45 43.6897Z" fill="white"/>
<path d="M208.63 47.4C206.283 47.4 204.377 47.1067 202.91 46.52C201.47 45.9067 200.443 45.2133 199.83 44.44C199.217 43.64 198.91 42.92 198.91 42.28C198.91 41.4 199.15 40.72 199.63 40.24C200.137 39.76 200.723 39.52 201.39 39.52C201.87 39.52 202.31 39.6533 202.71 39.92C203.11 40.1867 203.377 40.56 203.51 41.04C203.83 42.1067 204.203 42.9067 204.63 43.44C205.057 43.9733 205.523 44.3333 206.03 44.52C206.537 44.68 207.163 44.76 207.91 44.76C209.297 44.76 210.403 44.2 211.23 43.08C212.083 41.96 212.51 40.3067 212.51 38.12C212.51 36.28 212.15 34.7467 211.43 33.52C210.71 32.2933 209.59 31.68 208.07 31.68C206.87 31.68 205.75 31.9733 204.71 32.56C203.697 33.12 202.843 33.9333 202.15 35L199.83 34.52L201.87 19H215.43C215.803 19 216.097 18.88 216.31 18.64C216.55 18.4 216.763 18.04 216.95 17.56H218.75L218.27 23.56H204.15L203.11 31.16C204.817 29.8 207.043 29.12 209.79 29.12C213.417 29.12 216.003 29.9733 217.55 31.68C219.123 33.36 219.91 35.52 219.91 38.16C219.91 41.0667 218.95 43.3333 217.03 44.96C215.137 46.5867 212.337 47.4 208.63 47.4ZM235.372 47.4C227.559 47.4 223.652 42.6 223.652 33C223.652 23.4 227.559 18.6 235.372 18.6C239.426 18.6 242.386 19.8667 244.252 22.4C246.146 24.9067 247.092 28.44 247.092 33C247.092 37.56 246.146 41.1067 244.252 43.64C242.386 46.1467 239.426 47.4 235.372 47.4ZM235.372 44.76C238.172 44.76 239.572 40.84 239.572 33C239.572 25.1067 238.172 21.16 235.372 21.16C233.879 21.16 232.799 22.2 232.132 24.28C231.492 26.3333 231.172 29.24 231.172 33C231.172 36.7867 231.492 39.6933 232.132 41.72C232.799 43.7467 233.879 44.76 235.372 44.76ZM261.114 47.4C253.301 47.4 249.394 42.6 249.394 33C249.394 23.4 253.301 18.6 261.114 18.6C265.168 18.6 268.128 19.8667 269.994 22.4C271.888 24.9067 272.834 28.44 272.834 33C272.834 37.56 271.888 41.1067 269.994 43.64C268.128 46.1467 265.168 47.4 261.114 47.4ZM261.114 44.76C263.914 44.76 265.314 40.84 265.314 33C265.314 25.1067 263.914 21.16 261.114 21.16C259.621 21.16 258.541 22.2 257.874 24.28C257.234 26.3333 256.914 29.24 256.914 33C256.914 36.7867 257.234 39.6933 257.874 41.72C258.541 43.7467 259.621 44.76 261.114 44.76ZM286.857 47.4C279.043 47.4 275.137 42.6 275.137 33C275.137 23.4 279.043 18.6 286.857 18.6C290.91 18.6 293.87 19.8667 295.737 22.4C297.63 24.9067 298.577 28.44 298.577 33C298.577 37.56 297.63 41.1067 295.737 43.64C293.87 46.1467 290.91 47.4 286.857 47.4ZM286.857 44.76C289.657 44.76 291.057 40.84 291.057 33C291.057 25.1067 289.657 21.16 286.857 21.16C285.363 21.16 284.283 22.2 283.617 24.28C282.977 26.3333 282.657 29.24 282.657 33C282.657 36.7867 282.977 39.6933 283.617 41.72C284.283 43.7467 285.363 44.76 286.857 44.76ZM308.399 36.56H301.119V33.04H308.399V25.64H315.519V33.04H322.799V36.56H315.519V43.96H308.399V36.56Z" fill="#0F0F0F"/>
<path d="M177.446 95.376C177.67 95.376 177.958 95.312 178.31 95.184V95.592C177.814 96.024 177.134 96.24 176.27 96.24C175.79 96.24 175.398 96.112 175.094 95.856C174.806 95.584 174.662 95.192 174.662 94.68V94.2C174.31 94.776 173.766 95.264 173.03 95.664C172.31 96.048 171.494 96.24 170.582 96.24C169.254 96.24 168.238 95.952 167.534 95.376C166.83 94.784 166.478 93.992 166.478 93V86.568C166.478 86.392 166.43 86.264 166.334 86.184C166.238 86.104 166.126 86.064 165.998 86.064C165.838 86.064 165.598 86.128 165.278 86.256L165.11 85.728L168.11 84.648H168.734V92.712C168.734 93.56 168.95 94.2 169.382 94.632C169.814 95.064 170.43 95.28 171.23 95.28C171.79 95.28 172.334 95.144 172.862 94.872C173.39 94.584 173.822 94.16 174.158 93.6C174.494 93.04 174.662 92.368 174.662 91.584V86.568C174.662 86.392 174.606 86.264 174.494 86.184C174.398 86.104 174.286 86.064 174.158 86.064C174.03 86.064 173.79 86.128 173.438 86.256L173.27 85.728L176.366 84.648H176.894V94.608C176.894 95.12 177.078 95.376 177.446 95.376ZM184.73 96.24C182.922 96.24 181.642 95.736 180.89 94.728L180.626 96.192H180.026V92.616H180.626C180.802 93.448 181.194 94.112 181.802 94.608C182.41 95.088 183.17 95.328 184.082 95.328C185.01 95.328 185.722 95.16 186.218 94.824C186.73 94.488 186.986 94 186.986 93.36C186.986 92.864 186.762 92.48 186.314 92.208C185.866 91.92 185.178 91.616 184.25 91.296C183.386 90.976 182.682 90.68 182.138 90.408C181.61 90.12 181.154 89.736 180.77 89.256C180.386 88.76 180.194 88.136 180.194 87.384C180.194 86.456 180.554 85.744 181.274 85.248C181.994 84.736 183.002 84.48 184.298 84.48C185.018 84.48 185.722 84.6 186.41 84.84C187.098 85.08 187.626 85.432 187.994 85.896L188.258 84.48H188.858V87.96H188.258C188.066 87.208 187.682 86.6 187.106 86.136C186.546 85.672 185.826 85.44 184.946 85.44C184.178 85.44 183.562 85.592 183.098 85.896C182.634 86.2 182.402 86.616 182.402 87.144C182.402 87.72 182.642 88.168 183.122 88.488C183.618 88.808 184.362 89.136 185.354 89.472C186.202 89.776 186.882 90.056 187.394 90.312C187.906 90.552 188.338 90.904 188.69 91.368C189.058 91.816 189.242 92.392 189.242 93.096C189.242 94.152 188.818 94.944 187.97 95.472C187.138 95.984 186.058 96.24 184.73 96.24ZM193.456 89.808C193.44 89.936 193.432 90.128 193.432 90.384C193.432 91.888 193.784 93.096 194.488 94.008C195.208 94.92 196.152 95.376 197.32 95.376C198.376 95.376 199.248 95.104 199.936 94.56C200.624 94 201.072 93.144 201.28 91.992H201.976C201.848 93.272 201.368 94.304 200.536 95.088C199.704 95.856 198.536 96.24 197.032 96.24C195.176 96.24 193.728 95.736 192.688 94.728C191.664 93.704 191.152 92.248 191.152 90.36C191.152 88.536 191.664 87.104 192.688 86.064C193.728 85.008 195.152 84.48 196.96 84.48C198.624 84.48 199.888 84.928 200.752 85.824C201.632 86.704 202.072 87.848 202.072 89.256V89.808H193.456ZM197.032 85.392C196.088 85.392 195.32 85.704 194.728 86.328C194.136 86.952 193.744 87.8 193.552 88.872H200.08C200.048 87.976 199.784 87.176 199.288 86.472C198.808 85.752 198.056 85.392 197.032 85.392ZM210.657 84.48C211.121 84.48 211.513 84.568 211.833 84.744C212.169 84.904 212.337 85.16 212.337 85.512C212.337 85.816 212.257 86.048 212.097 86.208C211.953 86.368 211.745 86.448 211.473 86.448C211.297 86.448 211.153 86.416 211.041 86.352C210.945 86.288 210.857 86.2 210.777 86.088C210.665 85.976 210.561 85.896 210.465 85.848C210.369 85.784 210.233 85.752 210.057 85.752C209.641 85.752 209.241 85.904 208.857 86.208C208.489 86.512 208.185 86.952 207.945 87.528C207.705 88.104 207.569 88.768 207.537 89.52V94.632C207.537 94.888 207.657 95.08 207.897 95.208C208.137 95.336 208.449 95.4 208.833 95.4H209.241V96H203.553V95.4H204.009C204.393 95.4 204.697 95.336 204.921 95.208C205.161 95.08 205.281 94.888 205.281 94.632V86.568C205.281 86.232 205.121 86.064 204.801 86.064C204.641 86.064 204.401 86.128 204.081 86.256L203.937 85.728L207.009 84.648H207.537V86.856C207.761 86.168 208.161 85.6 208.737 85.152C209.313 84.704 209.953 84.48 210.657 84.48ZM218.176 96.24C216.368 96.24 215.088 95.736 214.336 94.728L214.072 96.192H213.472V92.616H214.072C214.248 93.448 214.64 94.112 215.248 94.608C215.856 95.088 216.616 95.328 217.528 95.328C218.456 95.328 219.168 95.16 219.664 94.824C220.176 94.488 220.432 94 220.432 93.36C220.432 92.864 220.208 92.48 219.76 92.208C219.312 91.92 218.624 91.616 217.696 91.296C216.832 90.976 216.128 90.68 215.584 90.408C215.056 90.12 214.6 89.736 214.216 89.256C213.832 88.76 213.64 88.136 213.64 87.384C213.64 86.456 214 85.744 214.72 85.248C215.44 84.736 216.448 84.48 217.744 84.48C218.464 84.48 219.168 84.6 219.856 84.84C220.544 85.08 221.072 85.432 221.44 85.896L221.704 84.48H222.304V87.96H221.704C221.512 87.208 221.128 86.6 220.552 86.136C219.992 85.672 219.272 85.44 218.392 85.44C217.624 85.44 217.008 85.592 216.544 85.896C216.08 86.2 215.848 86.616 215.848 87.144C215.848 87.72 216.088 88.168 216.568 88.488C217.064 88.808 217.808 89.136 218.8 89.472C219.648 89.776 220.328 90.056 220.84 90.312C221.352 90.552 221.784 90.904 222.136 91.368C222.504 91.816 222.688 92.392 222.688 93.096C222.688 94.152 222.264 94.944 221.416 95.472C220.584 95.984 219.504 96.24 218.176 96.24ZM232.621 89.808C232.605 89.936 232.597 90.128 232.597 90.384C232.597 91.888 232.949 93.096 233.653 94.008C234.373 94.92 235.317 95.376 236.485 95.376C237.541 95.376 238.413 95.104 239.101 94.56C239.789 94 240.237 93.144 240.445 91.992H241.141C241.013 93.272 240.533 94.304 239.701 95.088C238.869 95.856 237.701 96.24 236.197 96.24C234.341 96.24 232.893 95.736 231.853 94.728C230.829 93.704 230.317 92.248 230.317 90.36C230.317 88.536 230.829 87.104 231.853 86.064C232.893 85.008 234.317 84.48 236.125 84.48C237.789 84.48 239.053 84.928 239.917 85.824C240.797 86.704 241.237 87.848 241.237 89.256V89.808H232.621ZM236.197 85.392C235.253 85.392 234.485 85.704 233.893 86.328C233.301 86.952 232.909 87.8 232.717 88.872H239.245C239.213 87.976 238.949 87.176 238.453 86.472C237.973 85.752 237.221 85.392 236.197 85.392ZM262.973 95.4V96H257.309V95.4H257.741C258.125 95.4 258.437 95.336 258.677 95.208C258.917 95.08 259.037 94.888 259.037 94.632V88.032C259.037 87.184 258.837 86.544 258.437 86.112C258.037 85.68 257.509 85.464 256.853 85.464C255.989 85.464 255.269 85.784 254.693 86.424C254.117 87.064 253.829 87.976 253.829 89.16V94.632C253.829 94.888 253.949 95.08 254.189 95.208C254.429 95.336 254.741 95.4 255.125 95.4H255.341V96H250.109V95.4H250.373C250.773 95.4 251.085 95.336 251.309 95.208C251.549 95.08 251.669 94.888 251.669 94.632V88.032C251.669 87.184 251.469 86.544 251.069 86.112C250.685 85.68 250.157 85.464 249.485 85.464C248.621 85.464 247.901 85.784 247.325 86.424C246.765 87.064 246.485 87.976 246.485 89.16V94.632C246.485 94.888 246.605 95.08 246.845 95.208C247.085 95.336 247.397 95.4 247.781 95.4H248.189V96H242.501V95.4H242.957C243.341 95.4 243.645 95.336 243.869 95.208C244.109 95.08 244.229 94.888 244.229 94.632V86.568C244.229 86.232 244.069 86.064 243.749 86.064C243.589 86.064 243.349 86.128 243.029 86.256L242.885 85.728L245.885 84.648H246.485V86.472C246.789 85.912 247.261 85.44 247.901 85.056C248.541 84.672 249.285 84.48 250.133 84.48C251.125 84.48 251.917 84.68 252.509 85.08C253.117 85.48 253.517 86.024 253.709 86.712C253.965 86.12 254.429 85.6 255.101 85.152C255.789 84.704 256.589 84.48 257.501 84.48C258.733 84.48 259.669 84.776 260.309 85.368C260.965 85.96 261.293 86.752 261.293 87.744V94.632C261.293 94.888 261.405 95.08 261.629 95.208C261.869 95.336 262.181 95.4 262.565 95.4H262.973ZM264.064 100.8H264.52C264.904 100.8 265.216 100.736 265.456 100.608C265.696 100.48 265.816 100.288 265.816 100.032V86.568C265.816 86.392 265.76 86.264 265.648 86.184C265.552 86.104 265.44 86.064 265.312 86.064C265.184 86.064 264.944 86.128 264.592 86.256L264.424 85.728L267.448 84.648H268.048V86.496C268.512 85.776 269.096 85.264 269.8 84.96C270.504 84.64 271.248 84.48 272.032 84.48C273.6 84.48 274.832 84.96 275.728 85.92C276.624 86.88 277.072 88.264 277.072 90.072C277.072 92.232 276.592 93.8 275.632 94.776C274.688 95.752 273.304 96.24 271.48 96.24C270.728 96.24 270.032 96.08 269.392 95.76C268.752 95.44 268.304 95.048 268.048 94.584V100.008C268.048 100.264 268.168 100.456 268.408 100.584C268.648 100.728 268.952 100.8 269.32 100.8H269.728V101.4H264.064V100.8ZM271.336 95.328C272.568 95.328 273.456 94.872 274 93.96C274.56 93.032 274.84 91.776 274.84 90.192C274.84 88.608 274.552 87.424 273.976 86.64C273.4 85.84 272.504 85.44 271.288 85.44C270.824 85.44 270.336 85.584 269.824 85.872C269.328 86.144 268.904 86.536 268.552 87.048C268.216 87.544 268.048 88.12 268.048 88.776V92.136C268.048 93.032 268.336 93.792 268.912 94.416C269.504 95.024 270.312 95.328 271.336 95.328ZM284.506 96.24C282.57 96.24 281.066 95.728 279.994 94.704C278.938 93.68 278.41 92.232 278.41 90.36C278.41 88.488 278.946 87.04 280.018 86.016C281.09 84.992 282.586 84.48 284.506 84.48C286.426 84.48 287.914 84.992 288.97 86.016C290.042 87.04 290.578 88.488 290.578 90.36C290.578 92.232 290.042 93.68 288.97 94.704C287.914 95.728 286.426 96.24 284.506 96.24ZM284.506 95.328C285.69 95.328 286.626 94.896 287.314 94.032C288.002 93.168 288.346 91.944 288.346 90.36C288.346 88.792 288.002 87.584 287.314 86.736C286.626 85.872 285.69 85.44 284.506 85.44C283.306 85.44 282.362 85.872 281.674 86.736C280.986 87.584 280.642 88.792 280.642 90.36C280.642 91.944 280.986 93.168 281.674 94.032C282.362 94.896 283.306 95.328 284.506 95.328ZM309.094 84.72V85.344H308.782C308.51 85.344 308.246 85.4 307.99 85.512C307.75 85.608 307.598 85.768 307.534 85.992L304.654 96H302.902L300.334 86.736L297.526 96H295.774L293.206 86.808C293.174 86.712 293.118 86.512 293.038 86.208C292.958 85.904 292.822 85.688 292.63 85.56C292.454 85.416 292.206 85.344 291.886 85.344H291.598V84.72H296.35V85.344H295.99C295.238 85.344 294.918 85.584 295.03 86.064L297.046 94.032L299.782 84.72H301.438L304.15 94.128L306.214 86.136C306.23 86.088 306.238 86.016 306.238 85.92C306.238 85.712 306.15 85.568 305.974 85.488C305.798 85.392 305.582 85.344 305.326 85.344H304.966V84.72H309.094ZM311.956 89.808C311.94 89.936 311.932 90.128 311.932 90.384C311.932 91.888 312.284 93.096 312.988 94.008C313.708 94.92 314.652 95.376 315.82 95.376C316.876 95.376 317.748 95.104 318.436 94.56C319.124 94 319.572 93.144 319.78 91.992H320.476C320.348 93.272 319.868 94.304 319.036 95.088C318.204 95.856 317.036 96.24 315.532 96.24C313.676 96.24 312.228 95.736 311.188 94.728C310.164 93.704 309.652 92.248 309.652 90.36C309.652 88.536 310.164 87.104 311.188 86.064C312.228 85.008 313.652 84.48 315.46 84.48C317.124 84.48 318.388 84.928 319.252 85.824C320.132 86.704 320.572 87.848 320.572 89.256V89.808H311.956ZM315.532 85.392C314.588 85.392 313.82 85.704 313.228 86.328C312.636 86.952 312.244 87.8 312.052 88.872H318.58C318.548 87.976 318.284 87.176 317.788 86.472C317.308 85.752 316.556 85.392 315.532 85.392ZM329.157 84.48C329.621 84.48 330.013 84.568 330.333 84.744C330.669 84.904 330.837 85.16 330.837 85.512C330.837 85.816 330.757 86.048 330.597 86.208C330.453 86.368 330.245 86.448 329.973 86.448C329.797 86.448 329.653 86.416 329.541 86.352C329.445 86.288 329.357 86.2 329.277 86.088C329.165 85.976 329.061 85.896 328.965 85.848C328.869 85.784 328.733 85.752 328.557 85.752C328.141 85.752 327.741 85.904 327.357 86.208C326.989 86.512 326.685 86.952 326.445 87.528C326.205 88.104 326.069 88.768 326.037 89.52V94.632C326.037 94.888 326.157 95.08 326.397 95.208C326.637 95.336 326.949 95.4 327.333 95.4H327.741V96H322.053V95.4H322.509C322.893 95.4 323.197 95.336 323.421 95.208C323.661 95.08 323.781 94.888 323.781 94.632V86.568C323.781 86.232 323.621 86.064 323.301 86.064C323.141 86.064 322.901 86.128 322.581 86.256L322.437 85.728L325.509 84.648H326.037V86.856C326.261 86.168 326.661 85.6 327.237 85.152C327.813 84.704 328.453 84.48 329.157 84.48ZM333.027 89.808C333.011 89.936 333.003 90.128 333.003 90.384C333.003 91.888 333.355 93.096 334.059 94.008C334.779 94.92 335.723 95.376 336.891 95.376C337.947 95.376 338.819 95.104 339.507 94.56C340.195 94 340.643 93.144 340.851 91.992H341.547C341.419 93.272 340.939 94.304 340.107 95.088C339.275 95.856 338.107 96.24 336.603 96.24C334.747 96.24 333.299 95.736 332.259 94.728C331.235 93.704 330.723 92.248 330.723 90.36C330.723 88.536 331.235 87.104 332.259 86.064C333.299 85.008 334.723 84.48 336.531 84.48C338.195 84.48 339.459 84.928 340.323 85.824C341.203 86.704 341.643 87.848 341.643 89.256V89.808H333.027ZM336.603 85.392C335.659 85.392 334.891 85.704 334.299 86.328C333.707 86.952 333.315 87.8 333.123 88.872H339.651C339.619 87.976 339.355 87.176 338.859 86.472C338.379 85.752 337.627 85.392 336.603 85.392ZM348.211 96.24C346.627 96.24 345.379 95.752 344.467 94.776C343.571 93.8 343.123 92.248 343.123 90.12C343.123 88.904 343.339 87.872 343.771 87.024C344.219 86.176 344.819 85.544 345.571 85.128C346.339 84.696 347.211 84.48 348.187 84.48C349.963 84.48 351.267 85.04 352.099 86.16V80.736C352.099 80.4 351.939 80.232 351.619 80.232C351.459 80.232 351.219 80.296 350.899 80.424L350.755 79.872L353.755 78.792H354.355V94.344C354.355 94.632 354.435 94.848 354.595 94.992C354.771 95.12 355.027 95.184 355.363 95.184H355.915V95.736L352.507 96.096L352.387 94.224C351.587 95.568 350.195 96.24 348.211 96.24ZM348.835 95.328C349.507 95.328 350.091 95.176 350.587 94.872C351.083 94.552 351.459 94.136 351.715 93.624C351.987 93.096 352.123 92.544 352.123 91.968V88.32C352.123 87.776 351.963 87.288 351.643 86.856C351.339 86.408 350.947 86.064 350.467 85.824C349.987 85.568 349.491 85.44 348.979 85.44C347.795 85.44 346.891 85.848 346.267 86.664C345.659 87.464 345.355 88.64 345.355 90.192C345.355 93.616 346.515 95.328 348.835 95.328Z" fill="#0F0F0F"/>
</svg>
