<svg width="274" height="109" viewBox="0 0 274 109" fill="none" xmlns="http://www.w3.org/2000/svg">
<g clip-path="url(#clip0_695_226)">
<rect x="0.666992" width="80" height="80" rx="40" fill="#415D48"/>
<path d="M69 54.9999C66.2333 54.9999 64 52.7666 64 49.9999V41.6666C64 38.8999 66.2333 36.6666 69 36.6666C71.7667 36.6666 74 38.8999 74 41.6666V49.9999C74 52.7666 71.7667 54.9999 69 54.9999ZM67.3333 66.6666H70.6667V61.5332C76.3 60.7332 80.6667 55.8666 80.6667 49.9999H77.3333C77.3333 54.5999 73.6 58.3333 69 58.3333C64.4 58.3333 60.6667 54.5999 60.6667 49.9999H57.3333C57.3333 55.8666 61.7 60.7332 67.3333 61.5332V66.6666ZM30.6667 39.9999C23.3 39.9999 17.3333 34.0333 17.3333 26.6666C17.3333 19.2999 23.3 13.3333 30.6667 13.3333C32.2333 13.3333 33.7333 13.5999 35.1333 14.0999C32.3333 17.5333 30.6667 21.8999 30.6667 26.6666C30.6667 31.4333 32.3333 35.7999 35.1333 39.2333C33.7333 39.7333 32.2333 39.9999 30.6667 39.9999ZM24.3667 43.7666C19.9667 46.8333 17.3333 51.8999 17.3333 57.3999V66.6666H4V57.3999C4 53.6666 6.03333 50.2333 9.36667 48.5333C13.5 46.3999 18.5667 44.5666 24.3667 43.7666ZM37.3333 26.6666C37.3333 19.2999 43.3 13.3333 50.6667 13.3333C58.0333 13.3333 64 19.2999 64 26.6666C64 34.0333 58.0333 39.9999 50.6667 39.9999C43.3 39.9999 37.3333 34.0333 37.3333 26.6666ZM61.7333 66.6666C56.1667 63.9666 52.3333 58.2666 52.3333 51.6666C52.3333 48.6999 53.1 45.8999 54.4667 43.4999C53.2333 43.3999 51.9667 43.3333 50.6667 43.3333C42.2333 43.3333 34.9667 45.6666 29.3667 48.5333C26.0333 50.2333 24 53.6666 24 57.3999V66.6666H61.7333Z" fill="white"/>
</g>
<path d="M110.788 47.36C109.855 47.36 109.055 47.08 108.388 46.52C107.721 45.9333 107.388 45.1333 107.388 44.12C107.388 40.36 108.455 36.6533 110.588 33C112.748 29.3467 115.348 26.2 118.388 23.56H107.588C106.708 23.56 106.028 24 105.548 24.88C105.068 25.76 104.788 26.6533 104.708 27.56H102.748V19H124.908V21.52C123.121 23.1467 121.455 25.2 119.908 27.68C118.388 30.1333 117.175 32.7867 116.268 35.64C115.361 38.4667 114.895 41.2 114.868 43.84C114.868 44.9333 114.575 45.8 113.988 46.44C113.428 47.0533 112.361 47.36 110.788 47.36ZM139.41 47.4C131.597 47.4 127.69 42.6 127.69 33C127.69 23.4 131.597 18.6 139.41 18.6C143.464 18.6 146.424 19.8667 148.29 22.4C150.184 24.9067 151.13 28.44 151.13 33C151.13 37.56 150.184 41.1067 148.29 43.64C146.424 46.1467 143.464 47.4 139.41 47.4ZM139.41 44.76C142.21 44.76 143.61 40.84 143.61 33C143.61 25.1067 142.21 21.16 139.41 21.16C137.917 21.16 136.837 22.2 136.17 24.28C135.53 26.3333 135.21 29.24 135.21 33C135.21 36.7867 135.53 39.6933 136.17 41.72C136.837 43.7467 137.917 44.76 139.41 44.76ZM165.152 47.4C157.339 47.4 153.432 42.6 153.432 33C153.432 23.4 157.339 18.6 165.152 18.6C169.206 18.6 172.166 19.8667 174.032 22.4C175.926 24.9067 176.872 28.44 176.872 33C176.872 37.56 175.926 41.1067 174.032 43.64C172.166 46.1467 169.206 47.4 165.152 47.4ZM165.152 44.76C167.952 44.76 169.352 40.84 169.352 33C169.352 25.1067 167.952 21.16 165.152 21.16C163.659 21.16 162.579 22.2 161.912 24.28C161.272 26.3333 160.952 29.24 160.952 33C160.952 36.7867 161.272 39.6933 161.912 41.72C162.579 43.7467 163.659 44.76 165.152 44.76ZM186.695 36.56H179.415V33.04H186.695V25.64H193.815V33.04H201.095V36.56H193.815V43.96H186.695V36.56Z" fill="#0F0F0F"/>
<path d="M104.827 96.24C103.851 96.24 103.083 96.016 102.523 95.568C101.979 95.104 101.707 94.48 101.707 93.696C101.707 92.528 102.315 91.568 103.531 90.816C104.763 90.064 106.651 89.512 109.195 89.16V87.912C109.195 87.096 108.939 86.48 108.427 86.064C107.915 85.648 107.235 85.44 106.387 85.44C105.779 85.44 105.219 85.56 104.707 85.8C104.195 86.04 103.939 86.296 103.939 86.568C103.939 86.664 103.955 86.784 103.987 86.928C104.019 87.072 104.035 87.184 104.035 87.264C104.035 87.504 103.963 87.712 103.819 87.888C103.675 88.064 103.443 88.152 103.123 88.152C102.851 88.152 102.619 88.056 102.427 87.864C102.251 87.656 102.163 87.368 102.163 87C102.163 86.2 102.619 85.584 103.531 85.152C104.443 84.704 105.555 84.48 106.867 84.48C108.339 84.48 109.475 84.808 110.275 85.464C111.075 86.104 111.475 86.984 111.475 88.104V94.608C111.475 95.12 111.651 95.376 112.003 95.376C112.227 95.376 112.515 95.312 112.867 95.184V95.592C112.627 95.8 112.323 95.96 111.955 96.072C111.587 96.184 111.211 96.24 110.827 96.24C110.395 96.24 110.019 96.152 109.699 95.976C109.379 95.8 109.219 95.512 109.219 95.112V94.392C108.579 95.096 107.867 95.584 107.083 95.856C106.315 96.112 105.563 96.24 104.827 96.24ZM105.931 95.28C106.523 95.28 107.139 95.088 107.779 94.704C108.435 94.32 108.907 93.88 109.195 93.384V89.952C107.499 90.288 106.195 90.776 105.283 91.416C104.387 92.04 103.939 92.744 103.939 93.528C103.939 94.104 104.115 94.544 104.467 94.848C104.819 95.136 105.307 95.28 105.931 95.28ZM129.554 84.72V85.344H129.242C128.97 85.344 128.706 85.4 128.45 85.512C128.21 85.608 128.058 85.768 127.994 85.992L125.114 96H123.362L120.794 86.736L117.986 96H116.234L113.666 86.808C113.634 86.712 113.578 86.512 113.498 86.208C113.418 85.904 113.282 85.688 113.09 85.56C112.914 85.416 112.666 85.344 112.346 85.344H112.058V84.72H116.81V85.344H116.45C115.698 85.344 115.378 85.584 115.49 86.064L117.506 94.032L120.242 84.72H121.898L124.61 94.128L126.674 86.136C126.69 86.088 126.698 86.016 126.698 85.92C126.698 85.712 126.61 85.568 126.434 85.488C126.258 85.392 126.042 85.344 125.786 85.344H125.426V84.72H129.554ZM132.764 96.24C131.788 96.24 131.02 96.016 130.46 95.568C129.916 95.104 129.644 94.48 129.644 93.696C129.644 92.528 130.252 91.568 131.468 90.816C132.7 90.064 134.588 89.512 137.132 89.16V87.912C137.132 87.096 136.876 86.48 136.364 86.064C135.852 85.648 135.172 85.44 134.324 85.44C133.716 85.44 133.156 85.56 132.644 85.8C132.132 86.04 131.876 86.296 131.876 86.568C131.876 86.664 131.892 86.784 131.924 86.928C131.956 87.072 131.972 87.184 131.972 87.264C131.972 87.504 131.9 87.712 131.756 87.888C131.612 88.064 131.38 88.152 131.06 88.152C130.788 88.152 130.556 88.056 130.364 87.864C130.188 87.656 130.1 87.368 130.1 87C130.1 86.2 130.556 85.584 131.468 85.152C132.38 84.704 133.492 84.48 134.804 84.48C136.276 84.48 137.412 84.808 138.212 85.464C139.012 86.104 139.412 86.984 139.412 88.104V94.608C139.412 95.12 139.588 95.376 139.94 95.376C140.164 95.376 140.452 95.312 140.804 95.184V95.592C140.564 95.8 140.26 95.96 139.892 96.072C139.524 96.184 139.148 96.24 138.764 96.24C138.332 96.24 137.956 96.152 137.636 95.976C137.316 95.8 137.156 95.512 137.156 95.112V94.392C136.516 95.096 135.804 95.584 135.02 95.856C134.252 96.112 133.5 96.24 132.764 96.24ZM133.868 95.28C134.46 95.28 135.076 95.088 135.716 94.704C136.372 94.32 136.844 93.88 137.132 93.384V89.952C135.436 90.288 134.132 90.776 133.22 91.416C132.324 92.04 131.876 92.744 131.876 93.528C131.876 94.104 132.052 94.544 132.404 94.848C132.756 95.136 133.244 95.28 133.868 95.28ZM148.937 84.48C149.401 84.48 149.793 84.568 150.113 84.744C150.449 84.904 150.617 85.16 150.617 85.512C150.617 85.816 150.537 86.048 150.377 86.208C150.233 86.368 150.025 86.448 149.753 86.448C149.577 86.448 149.433 86.416 149.321 86.352C149.225 86.288 149.137 86.2 149.057 86.088C148.945 85.976 148.841 85.896 148.745 85.848C148.649 85.784 148.513 85.752 148.337 85.752C147.921 85.752 147.521 85.904 147.137 86.208C146.769 86.512 146.465 86.952 146.225 87.528C145.985 88.104 145.849 88.768 145.817 89.52V94.632C145.817 94.888 145.937 95.08 146.177 95.208C146.417 95.336 146.729 95.4 147.113 95.4H147.521V96H141.833V95.4H142.289C142.673 95.4 142.977 95.336 143.201 95.208C143.441 95.08 143.561 94.888 143.561 94.632V86.568C143.561 86.232 143.401 86.064 143.081 86.064C142.921 86.064 142.681 86.128 142.361 86.256L142.217 85.728L145.289 84.648H145.817V86.856C146.041 86.168 146.441 85.6 147.017 85.152C147.593 84.704 148.233 84.48 148.937 84.48ZM156.624 96.24C155.04 96.24 153.792 95.752 152.88 94.776C151.984 93.8 151.536 92.248 151.536 90.12C151.536 88.904 151.752 87.872 152.184 87.024C152.632 86.176 153.232 85.544 153.984 85.128C154.752 84.696 155.624 84.48 156.6 84.48C158.376 84.48 159.68 85.04 160.512 86.16V80.736C160.512 80.4 160.352 80.232 160.032 80.232C159.872 80.232 159.632 80.296 159.312 80.424L159.168 79.872L162.168 78.792H162.768V94.344C162.768 94.632 162.848 94.848 163.008 94.992C163.184 95.12 163.44 95.184 163.776 95.184H164.328V95.736L160.92 96.096L160.8 94.224C160 95.568 158.608 96.24 156.624 96.24ZM157.248 95.328C157.92 95.328 158.504 95.176 159 94.872C159.496 94.552 159.872 94.136 160.128 93.624C160.4 93.096 160.536 92.544 160.536 91.968V88.32C160.536 87.776 160.376 87.288 160.056 86.856C159.752 86.408 159.36 86.064 158.88 85.824C158.4 85.568 157.904 85.44 157.392 85.44C156.208 85.44 155.304 85.848 154.68 86.664C154.072 87.464 153.768 88.64 153.768 90.192C153.768 93.616 154.928 95.328 157.248 95.328ZM170.495 96.24C168.687 96.24 167.407 95.736 166.655 94.728L166.391 96.192H165.791V92.616H166.391C166.567 93.448 166.959 94.112 167.567 94.608C168.175 95.088 168.935 95.328 169.847 95.328C170.775 95.328 171.487 95.16 171.983 94.824C172.495 94.488 172.751 94 172.751 93.36C172.751 92.864 172.527 92.48 172.079 92.208C171.631 91.92 170.943 91.616 170.015 91.296C169.151 90.976 168.447 90.68 167.903 90.408C167.375 90.12 166.919 89.736 166.535 89.256C166.151 88.76 165.959 88.136 165.959 87.384C165.959 86.456 166.319 85.744 167.039 85.248C167.759 84.736 168.767 84.48 170.063 84.48C170.783 84.48 171.487 84.6 172.175 84.84C172.863 85.08 173.391 85.432 173.759 85.896L174.023 84.48H174.623V87.96H174.023C173.831 87.208 173.447 86.6 172.871 86.136C172.311 85.672 171.591 85.44 170.711 85.44C169.943 85.44 169.327 85.592 168.863 85.896C168.399 86.2 168.167 86.616 168.167 87.144C168.167 87.72 168.407 88.168 168.887 88.488C169.383 88.808 170.127 89.136 171.119 89.472C171.967 89.776 172.647 90.056 173.159 90.312C173.671 90.552 174.103 90.904 174.455 91.368C174.823 91.816 175.007 92.392 175.007 93.096C175.007 94.152 174.583 94.944 173.735 95.472C172.903 95.984 171.823 96.24 170.495 96.24ZM189.812 84.48C190.276 84.48 190.668 84.568 190.988 84.744C191.324 84.904 191.492 85.16 191.492 85.512C191.492 85.816 191.412 86.048 191.252 86.208C191.108 86.368 190.9 86.448 190.628 86.448C190.452 86.448 190.308 86.416 190.196 86.352C190.1 86.288 190.012 86.2 189.932 86.088C189.82 85.976 189.716 85.896 189.62 85.848C189.524 85.784 189.388 85.752 189.212 85.752C188.796 85.752 188.396 85.904 188.012 86.208C187.644 86.512 187.34 86.952 187.1 87.528C186.86 88.104 186.724 88.768 186.692 89.52V94.632C186.692 94.888 186.812 95.08 187.052 95.208C187.292 95.336 187.604 95.4 187.988 95.4H188.396V96H182.708V95.4H183.164C183.548 95.4 183.852 95.336 184.076 95.208C184.316 95.08 184.436 94.888 184.436 94.632V86.568C184.436 86.232 184.276 86.064 183.956 86.064C183.796 86.064 183.556 86.128 183.236 86.256L183.092 85.728L186.164 84.648H186.692V86.856C186.916 86.168 187.316 85.6 187.892 85.152C188.468 84.704 189.108 84.48 189.812 84.48ZM193.682 89.808C193.666 89.936 193.658 90.128 193.658 90.384C193.658 91.888 194.01 93.096 194.714 94.008C195.434 94.92 196.378 95.376 197.546 95.376C198.602 95.376 199.474 95.104 200.162 94.56C200.85 94 201.298 93.144 201.506 91.992H202.202C202.074 93.272 201.594 94.304 200.762 95.088C199.93 95.856 198.762 96.24 197.258 96.24C195.402 96.24 193.954 95.736 192.914 94.728C191.89 93.704 191.378 92.248 191.378 90.36C191.378 88.536 191.89 87.104 192.914 86.064C193.954 85.008 195.378 84.48 197.186 84.48C198.85 84.48 200.114 84.928 200.978 85.824C201.858 86.704 202.298 87.848 202.298 89.256V89.808H193.682ZM197.258 85.392C196.314 85.392 195.546 85.704 194.954 86.328C194.362 86.952 193.97 87.8 193.778 88.872H200.306C200.274 87.976 200.01 87.176 199.514 86.472C199.034 85.752 198.282 85.392 197.258 85.392ZM209.514 96.24C207.674 96.24 206.242 95.736 205.218 94.728C204.21 93.704 203.706 92.248 203.706 90.36C203.706 88.536 204.218 87.104 205.242 86.064C206.282 85.008 207.722 84.48 209.562 84.48C210.33 84.48 211.066 84.592 211.77 84.816C212.474 85.04 213.05 85.424 213.498 85.968L213.738 84.48H214.338V88.464H213.762C213.602 87.44 213.202 86.672 212.562 86.16C211.938 85.648 211.146 85.392 210.186 85.392C208.842 85.392 207.802 85.856 207.066 86.784C206.346 87.696 205.986 88.896 205.986 90.384C205.986 91.888 206.33 93.096 207.018 94.008C207.722 94.92 208.65 95.376 209.802 95.376C210.858 95.376 211.722 95.104 212.394 94.56C213.066 94 213.498 93.144 213.69 91.992H214.41C214.282 93.272 213.81 94.304 212.994 95.088C212.178 95.856 211.018 96.24 209.514 96.24ZM218.221 89.808C218.205 89.936 218.197 90.128 218.197 90.384C218.197 91.888 218.549 93.096 219.253 94.008C219.973 94.92 220.917 95.376 222.085 95.376C223.141 95.376 224.013 95.104 224.701 94.56C225.389 94 225.837 93.144 226.045 91.992H226.741C226.613 93.272 226.133 94.304 225.301 95.088C224.469 95.856 223.301 96.24 221.797 96.24C219.941 96.24 218.493 95.736 217.453 94.728C216.429 93.704 215.917 92.248 215.917 90.36C215.917 88.536 216.429 87.104 217.453 86.064C218.493 85.008 219.917 84.48 221.725 84.48C223.389 84.48 224.653 84.928 225.517 85.824C226.397 86.704 226.837 87.848 226.837 89.256V89.808H218.221ZM221.797 85.392C220.853 85.392 220.085 85.704 219.493 86.328C218.901 86.952 218.509 87.8 218.317 88.872H224.845C224.813 87.976 224.549 87.176 224.053 86.472C223.573 85.752 222.821 85.392 221.797 85.392ZM230.885 82.536C230.469 82.536 230.133 82.416 229.877 82.176C229.637 81.92 229.517 81.6 229.517 81.216C229.517 80.816 229.637 80.496 229.877 80.256C230.133 80.016 230.469 79.896 230.885 79.896C231.285 79.896 231.605 80.016 231.845 80.256C232.101 80.496 232.229 80.816 232.229 81.216C232.229 81.6 232.101 81.92 231.845 82.176C231.605 82.416 231.285 82.536 230.885 82.536ZM228.221 95.4H228.677C229.061 95.4 229.365 95.336 229.589 95.208C229.829 95.08 229.949 94.888 229.949 94.632V86.544C229.949 86.192 229.781 86.016 229.445 86.016C229.365 86.016 229.245 86.048 229.085 86.112C228.925 86.16 228.813 86.192 228.749 86.208L228.581 85.656L231.605 84.6H232.205V94.632C232.205 94.888 232.317 95.08 232.541 95.208C232.781 95.336 233.093 95.4 233.477 95.4H233.933V96H228.221V95.4ZM236.644 86.472C236.484 86.024 236.308 85.728 236.116 85.584C235.94 85.424 235.668 85.344 235.3 85.344H234.916V84.72H239.956V85.344H239.572C238.948 85.344 238.636 85.504 238.636 85.824C238.636 85.856 238.652 85.936 238.684 86.064L241.492 94.032L244.3 86.136C244.332 86.008 244.348 85.928 244.348 85.896C244.348 85.528 244.02 85.344 243.364 85.344H243.004V84.72H247.348V85.344H246.796C246.236 85.344 245.876 85.56 245.716 85.992L242.02 96H240.196L236.644 86.472ZM249.932 89.808C249.916 89.936 249.908 90.128 249.908 90.384C249.908 91.888 250.26 93.096 250.964 94.008C251.684 94.92 252.628 95.376 253.796 95.376C254.852 95.376 255.724 95.104 256.412 94.56C257.1 94 257.548 93.144 257.756 91.992H258.452C258.324 93.272 257.844 94.304 257.012 95.088C256.18 95.856 255.012 96.24 253.508 96.24C251.652 96.24 250.204 95.736 249.164 94.728C248.14 93.704 247.628 92.248 247.628 90.36C247.628 88.536 248.14 87.104 249.164 86.064C250.204 85.008 251.628 84.48 253.436 84.48C255.1 84.48 256.364 84.928 257.228 85.824C258.108 86.704 258.548 87.848 258.548 89.256V89.808H249.932ZM253.508 85.392C252.564 85.392 251.796 85.704 251.204 86.328C250.612 86.952 250.22 87.8 250.028 88.872H256.556C256.524 87.976 256.26 87.176 255.764 86.472C255.284 85.752 254.532 85.392 253.508 85.392ZM265.116 96.24C263.532 96.24 262.284 95.752 261.372 94.776C260.476 93.8 260.028 92.248 260.028 90.12C260.028 88.904 260.244 87.872 260.676 87.024C261.124 86.176 261.724 85.544 262.476 85.128C263.244 84.696 264.116 84.48 265.092 84.48C266.868 84.48 268.172 85.04 269.004 86.16V80.736C269.004 80.4 268.844 80.232 268.524 80.232C268.364 80.232 268.124 80.296 267.804 80.424L267.66 79.872L270.66 78.792H271.26V94.344C271.26 94.632 271.34 94.848 271.5 94.992C271.676 95.12 271.932 95.184 272.268 95.184H272.82V95.736L269.412 96.096L269.292 94.224C268.492 95.568 267.1 96.24 265.116 96.24ZM265.74 95.328C266.412 95.328 266.996 95.176 267.492 94.872C267.988 94.552 268.364 94.136 268.62 93.624C268.892 93.096 269.028 92.544 269.028 91.968V88.32C269.028 87.776 268.868 87.288 268.548 86.856C268.244 86.408 267.852 86.064 267.372 85.824C266.892 85.568 266.396 85.44 265.884 85.44C264.7 85.44 263.796 85.848 263.172 86.664C262.564 87.464 262.26 88.64 262.26 90.192C262.26 93.616 263.42 95.328 265.74 95.328Z" fill="#0F0F0F"/>
<defs>
<clipPath id="clip0_695_226">
<rect x="0.666992" width="80" height="80" rx="40" fill="white"/>
</clipPath>
</defs>
</svg>
