<svg width="261" height="109" viewBox="0 0 261 109" fill="none" xmlns="http://www.w3.org/2000/svg">
<path d="M33.3333 60C34.3333 60 35.2917 59.9444 36.2083 59.8333C37.125 59.7222 38.0556 59.5555 39 59.3333L35 53.3333H23.3333V50C23.3333 48.1667 23.9861 46.5972 25.2917 45.2917C26.5972 43.9861 28.1667 43.3333 30 43.3333H36.6667V33.3333H30C29.0556 33.3333 28.2639 33.0139 27.625 32.375C26.9861 31.7361 26.6667 30.9444 26.6667 30V23.3333H25.1667C23.7222 23.3333 22.5 22.8472 21.5 21.875C20.5 20.9028 20 19.6944 20 18.25C20 17.75 20.0694 17.25 20.2083 16.75C20.3472 16.25 20.5556 15.7778 20.8333 15.3333L26 7.75C20.3889 9.36111 15.7639 12.5 12.125 17.1667C8.48611 21.8333 6.66667 27.2222 6.66667 33.3333H10V30C10 29.0556 10.3194 28.2639 10.9583 27.625C11.5972 26.9861 12.3889 26.6667 13.3333 26.6667H20C20.9444 26.6667 21.7361 26.9861 22.375 27.625C23.0139 28.2639 23.3333 29.0556 23.3333 30V33.3333C23.3333 34.2778 23.0139 35.0694 22.375 35.7083C21.7361 36.3472 20.9444 36.6667 20 36.6667V40C20 41.8333 19.3472 43.4028 18.0417 44.7083C16.7361 46.0139 15.1667 46.6667 13.3333 46.6667H10.25C12.5833 50.6667 15.7778 53.8889 19.8333 56.3333C23.8889 58.7778 28.3889 60 33.3333 60ZM58.6667 41.5C59.1111 40.2222 59.4444 38.9028 59.6667 37.5417C59.8889 36.1806 60 34.7778 60 33.3333C60 27.1111 58.1111 21.625 54.3333 16.875C50.5555 12.125 45.7778 9 40 7.5V16.6667C41.8333 16.6667 43.4028 17.3194 44.7083 18.625C46.0139 19.9306 46.6667 21.5 46.6667 23.3333V30C47.7222 30 48.6667 30.125 49.5 30.375C50.3333 30.625 51.1389 31.1389 51.9167 31.9167L58.6667 41.5ZM33.3333 66.6667C28.7222 66.6667 24.3889 65.7917 20.3333 64.0417C16.2778 62.2917 12.75 59.9167 9.75 56.9167C6.75 53.9167 4.375 50.3889 2.625 46.3333C0.875 42.2778 0 37.9444 0 33.3333C0 28.7222 0.875 24.3889 2.625 20.3333C4.375 16.2778 6.75 12.75 9.75 9.75C12.75 6.75 16.2778 4.375 20.3333 2.625C24.3889 0.875 28.7222 0 33.3333 0C37.9444 0 42.2778 0.875 46.3333 2.625C50.3889 4.375 53.9167 6.75 56.9167 9.75C59.9167 12.75 62.2917 16.2778 64.0417 20.3333C65.7917 24.3889 66.6667 28.7222 66.6667 33.3333C66.6667 37.9444 65.7917 42.2778 64.0417 46.3333C62.2917 50.3889 59.9167 53.9167 56.9167 56.9167C53.9167 59.9167 50.3889 62.2917 46.3333 64.0417C42.2778 65.7917 37.9444 66.6667 33.3333 66.6667Z" fill="#415D48"/>
<path d="M121.877 47.4C119.824 47.4 118.024 47.1067 116.477 46.52C114.93 45.9333 113.744 45.1467 112.917 44.16C112.09 43.1733 111.677 42.0933 111.677 40.92C111.677 40.12 111.997 39.52 112.637 39.12C113.277 38.6933 114.037 38.48 114.917 38.48C115.69 38.48 116.357 38.6533 116.917 39C117.504 39.32 117.797 39.7467 117.797 40.28C117.797 41.8267 118.09 42.96 118.677 43.68C119.29 44.4 120.317 44.76 121.757 44.76C123.144 44.76 124.237 44.28 125.037 43.32C125.864 42.3333 126.277 40.84 126.277 38.84C126.277 37.32 125.85 36.0533 124.997 35.04C124.17 34 122.957 33.48 121.357 33.48H116.877V30.92H121.357C123.09 30.92 124.344 30.3467 125.117 29.2C125.917 28.0267 126.317 26.72 126.317 25.28C126.317 23.92 125.97 22.8933 125.277 22.2C124.61 21.5067 123.637 21.16 122.357 21.16C120.944 21.16 119.93 21.5333 119.317 22.28C118.704 23 118.397 24.1467 118.397 25.72C118.397 26.28 118.117 26.7333 117.557 27.08C116.997 27.4 116.317 27.56 115.517 27.56C114.637 27.56 113.877 27.3467 113.237 26.92C112.597 26.4933 112.277 25.88 112.277 25.08C112.277 23.9067 112.717 22.8267 113.597 21.84C114.477 20.8533 115.717 20.0667 117.317 19.48C118.944 18.8933 120.784 18.6 122.837 18.6C125.85 18.6 128.33 19.2133 130.277 20.44C132.25 21.6667 133.237 23.56 133.237 26.12C133.237 27.48 132.744 28.7067 131.757 29.8C130.77 30.8933 129.517 31.6267 127.997 32V32.16C129.704 32.6133 131.064 33.4133 132.077 34.56C133.09 35.68 133.597 37.0667 133.597 38.72C133.597 41.68 132.504 43.8667 130.317 45.28C128.13 46.6933 125.317 47.4 121.877 47.4ZM148.539 47.4C140.726 47.4 136.819 42.6 136.819 33C136.819 23.4 140.726 18.6 148.539 18.6C152.593 18.6 155.553 19.8667 157.419 22.4C159.313 24.9067 160.259 28.44 160.259 33C160.259 37.56 159.313 41.1067 157.419 43.64C155.553 46.1467 152.593 47.4 148.539 47.4ZM148.539 44.76C151.339 44.76 152.739 40.84 152.739 33C152.739 25.1067 151.339 21.16 148.539 21.16C147.046 21.16 145.966 22.2 145.299 24.28C144.659 26.3333 144.339 29.24 144.339 33C144.339 36.7867 144.659 39.6933 145.299 41.72C145.966 43.7467 147.046 44.76 148.539 44.76ZM174.281 47.4C166.468 47.4 162.561 42.6 162.561 33C162.561 23.4 166.468 18.6 174.281 18.6C178.335 18.6 181.295 19.8667 183.161 22.4C185.055 24.9067 186.001 28.44 186.001 33C186.001 37.56 185.055 41.1067 183.161 43.64C181.295 46.1467 178.335 47.4 174.281 47.4ZM174.281 44.76C177.081 44.76 178.481 40.84 178.481 33C178.481 25.1067 177.081 21.16 174.281 21.16C172.788 21.16 171.708 22.2 171.041 24.28C170.401 26.3333 170.081 29.24 170.081 33C170.081 36.7867 170.401 39.6933 171.041 41.72C171.708 43.7467 172.788 44.76 174.281 44.76ZM200.024 47.4C192.21 47.4 188.304 42.6 188.304 33C188.304 23.4 192.21 18.6 200.024 18.6C204.077 18.6 207.037 19.8667 208.904 22.4C210.797 24.9067 211.744 28.44 211.744 33C211.744 37.56 210.797 41.1067 208.904 43.64C207.037 46.1467 204.077 47.4 200.024 47.4ZM200.024 44.76C202.824 44.76 204.224 40.84 204.224 33C204.224 25.1067 202.824 21.16 200.024 21.16C198.53 21.16 197.45 22.2 196.784 24.28C196.144 26.3333 195.824 29.24 195.824 33C195.824 36.7867 196.144 39.6933 196.784 41.72C197.45 43.7467 198.53 44.76 200.024 44.76ZM221.566 36.56H214.286V33.04H221.566V25.64H228.686V33.04H235.966V36.56H228.686V43.96H221.566V36.56Z" fill="#0F0F0F"/>
<path d="M94.515 84.48C94.979 84.48 95.371 84.568 95.691 84.744C96.027 84.904 96.195 85.16 96.195 85.512C96.195 85.816 96.115 86.048 95.955 86.208C95.811 86.368 95.603 86.448 95.331 86.448C95.155 86.448 95.011 86.416 94.899 86.352C94.803 86.288 94.715 86.2 94.635 86.088C94.523 85.976 94.419 85.896 94.323 85.848C94.227 85.784 94.091 85.752 93.915 85.752C93.499 85.752 93.099 85.904 92.715 86.208C92.347 86.512 92.043 86.952 91.803 87.528C91.563 88.104 91.427 88.768 91.395 89.52V94.632C91.395 94.888 91.515 95.08 91.755 95.208C91.995 95.336 92.307 95.4 92.691 95.4H93.099V96H87.411V95.4H87.867C88.251 95.4 88.555 95.336 88.779 95.208C89.019 95.08 89.139 94.888 89.139 94.632V86.568C89.139 86.232 88.979 86.064 88.659 86.064C88.499 86.064 88.259 86.128 87.939 86.256L87.795 85.728L90.867 84.648H91.395V86.856C91.619 86.168 92.019 85.6 92.595 85.152C93.171 84.704 93.811 84.48 94.515 84.48ZM98.3852 89.808C98.3692 89.936 98.3612 90.128 98.3612 90.384C98.3612 91.888 98.7132 93.096 99.4172 94.008C100.137 94.92 101.081 95.376 102.249 95.376C103.305 95.376 104.177 95.104 104.865 94.56C105.553 94 106.001 93.144 106.209 91.992H106.905C106.777 93.272 106.297 94.304 105.465 95.088C104.633 95.856 103.465 96.24 101.961 96.24C100.105 96.24 98.6572 95.736 97.6172 94.728C96.5932 93.704 96.0812 92.248 96.0812 90.36C96.0812 88.536 96.5932 87.104 97.6172 86.064C98.6572 85.008 100.081 84.48 101.889 84.48C103.553 84.48 104.817 84.928 105.681 85.824C106.561 86.704 107.001 87.848 107.001 89.256V89.808H98.3852ZM101.961 85.392C101.017 85.392 100.249 85.704 99.6572 86.328C99.0652 86.952 98.6732 87.8 98.4812 88.872H105.009C104.977 87.976 104.713 87.176 104.217 86.472C103.737 85.752 102.985 85.392 101.961 85.392ZM119.366 84.48C119.814 84.48 120.174 84.576 120.446 84.768C120.734 84.96 120.878 85.192 120.878 85.464C120.878 85.72 120.806 85.92 120.662 86.064C120.534 86.208 120.342 86.28 120.086 86.28C119.91 86.28 119.774 86.248 119.678 86.184C119.598 86.12 119.518 86.024 119.438 85.896C119.342 85.752 119.238 85.648 119.126 85.584C119.03 85.504 118.878 85.464 118.67 85.464C118.43 85.464 118.118 85.568 117.734 85.776C118.39 86.4 118.718 87.232 118.718 88.272C118.718 89.472 118.286 90.4 117.422 91.056C116.558 91.712 115.358 92.04 113.822 92.04C112.83 92.04 111.974 91.896 111.254 91.608C110.774 91.96 110.534 92.328 110.534 92.712C110.534 93.016 110.678 93.264 110.966 93.456C111.254 93.648 111.662 93.744 112.19 93.744H116.054C117.03 93.744 117.838 93.96 118.478 94.392C119.134 94.808 119.462 95.44 119.462 96.288C119.462 97.408 118.95 98.264 117.926 98.856C116.902 99.448 115.502 99.744 113.726 99.744C112.222 99.744 111.03 99.496 110.15 99C109.286 98.52 108.854 97.824 108.854 96.912C108.854 95.968 109.454 95.272 110.654 94.824C110.126 94.68 109.734 94.456 109.478 94.152C109.238 93.848 109.118 93.512 109.118 93.144C109.118 92.456 109.574 91.816 110.486 91.224C110.006 90.888 109.63 90.472 109.358 89.976C109.102 89.48 108.974 88.912 108.974 88.272C108.974 87.088 109.406 86.16 110.27 85.488C111.134 84.816 112.318 84.48 113.822 84.48C115.214 84.48 116.326 84.76 117.158 85.32C117.814 84.76 118.55 84.48 119.366 84.48ZM113.822 91.152C114.702 91.152 115.366 90.888 115.814 90.36C116.262 89.816 116.486 89.12 116.486 88.272C116.486 87.424 116.262 86.736 115.814 86.208C115.366 85.664 114.702 85.392 113.822 85.392C112.958 85.392 112.302 85.664 111.854 86.208C111.422 86.736 111.206 87.424 111.206 88.272C111.206 89.12 111.422 89.816 111.854 90.36C112.302 90.888 112.958 91.152 113.822 91.152ZM111.782 95.184C111.318 95.36 110.982 95.624 110.774 95.976C110.582 96.312 110.486 96.632 110.486 96.936C110.486 97.576 110.79 98.056 111.398 98.376C112.006 98.712 112.814 98.88 113.822 98.88C114.958 98.88 115.854 98.688 116.51 98.304C117.166 97.92 117.494 97.376 117.494 96.672C117.494 96.16 117.318 95.784 116.966 95.544C116.63 95.304 116.062 95.184 115.262 95.184H111.782ZM123.659 82.536C123.243 82.536 122.907 82.416 122.651 82.176C122.411 81.92 122.291 81.6 122.291 81.216C122.291 80.816 122.411 80.496 122.651 80.256C122.907 80.016 123.243 79.896 123.659 79.896C124.059 79.896 124.379 80.016 124.619 80.256C124.875 80.496 125.003 80.816 125.003 81.216C125.003 81.6 124.875 81.92 124.619 82.176C124.379 82.416 124.059 82.536 123.659 82.536ZM120.995 95.4H121.451C121.835 95.4 122.139 95.336 122.363 95.208C122.603 95.08 122.723 94.888 122.723 94.632V86.544C122.723 86.192 122.555 86.016 122.219 86.016C122.139 86.016 122.019 86.048 121.859 86.112C121.699 86.16 121.587 86.192 121.523 86.208L121.355 85.656L124.379 84.6H124.979V94.632C124.979 94.888 125.091 95.08 125.315 95.208C125.555 95.336 125.867 95.4 126.251 95.4H126.707V96H120.995V95.4ZM133.042 96.24C131.234 96.24 129.954 95.736 129.202 94.728L128.938 96.192H128.338V92.616H128.938C129.114 93.448 129.506 94.112 130.114 94.608C130.722 95.088 131.482 95.328 132.394 95.328C133.322 95.328 134.034 95.16 134.53 94.824C135.042 94.488 135.298 94 135.298 93.36C135.298 92.864 135.074 92.48 134.626 92.208C134.178 91.92 133.49 91.616 132.562 91.296C131.698 90.976 130.994 90.68 130.45 90.408C129.922 90.12 129.466 89.736 129.082 89.256C128.698 88.76 128.506 88.136 128.506 87.384C128.506 86.456 128.866 85.744 129.586 85.248C130.306 84.736 131.314 84.48 132.61 84.48C133.33 84.48 134.034 84.6 134.722 84.84C135.41 85.08 135.938 85.432 136.306 85.896L136.57 84.48H137.17V87.96H136.57C136.378 87.208 135.994 86.6 135.418 86.136C134.858 85.672 134.138 85.44 133.258 85.44C132.49 85.44 131.874 85.592 131.41 85.896C130.946 86.2 130.714 86.616 130.714 87.144C130.714 87.72 130.954 88.168 131.434 88.488C131.93 88.808 132.674 89.136 133.666 89.472C134.514 89.776 135.194 90.056 135.706 90.312C136.218 90.552 136.65 90.904 137.002 91.368C137.37 91.816 137.554 92.392 137.554 93.096C137.554 94.152 137.13 94.944 136.282 95.472C135.45 95.984 134.37 96.24 133.042 96.24ZM147.395 93.816C147.315 94.648 146.979 95.264 146.387 95.664C145.811 96.048 145.099 96.24 144.251 96.24C143.051 96.24 142.139 95.992 141.515 95.496C140.891 95 140.579 94.176 140.579 93.024V85.656H138.707V84.72H140.579V82.656L142.259 81.528H142.835V84.72H146.219V85.656H142.835V92.976C142.835 93.792 142.979 94.4 143.267 94.8C143.571 95.184 144.035 95.376 144.659 95.376C145.155 95.376 145.579 95.256 145.931 95.016C146.299 94.76 146.515 94.36 146.579 93.816H147.395ZM150.838 89.808C150.822 89.936 150.814 90.128 150.814 90.384C150.814 91.888 151.166 93.096 151.87 94.008C152.59 94.92 153.534 95.376 154.702 95.376C155.758 95.376 156.63 95.104 157.318 94.56C158.006 94 158.454 93.144 158.662 91.992H159.358C159.23 93.272 158.75 94.304 157.918 95.088C157.086 95.856 155.918 96.24 154.414 96.24C152.558 96.24 151.11 95.736 150.07 94.728C149.046 93.704 148.534 92.248 148.534 90.36C148.534 88.536 149.046 87.104 150.07 86.064C151.11 85.008 152.534 84.48 154.342 84.48C156.006 84.48 157.27 84.928 158.134 85.824C159.014 86.704 159.454 87.848 159.454 89.256V89.808H150.838ZM154.414 85.392C153.47 85.392 152.702 85.704 152.11 86.328C151.518 86.952 151.126 87.8 150.934 88.872H157.462C157.43 87.976 157.166 87.176 156.67 86.472C156.19 85.752 155.438 85.392 154.414 85.392ZM168.038 84.48C168.502 84.48 168.894 84.568 169.214 84.744C169.55 84.904 169.718 85.16 169.718 85.512C169.718 85.816 169.638 86.048 169.478 86.208C169.334 86.368 169.126 86.448 168.854 86.448C168.678 86.448 168.534 86.416 168.422 86.352C168.326 86.288 168.238 86.2 168.158 86.088C168.046 85.976 167.942 85.896 167.846 85.848C167.75 85.784 167.614 85.752 167.438 85.752C167.022 85.752 166.622 85.904 166.238 86.208C165.87 86.512 165.566 86.952 165.326 87.528C165.086 88.104 164.95 88.768 164.918 89.52V94.632C164.918 94.888 165.038 95.08 165.278 95.208C165.518 95.336 165.83 95.4 166.214 95.4H166.622V96H160.934V95.4H161.39C161.774 95.4 162.078 95.336 162.302 95.208C162.542 95.08 162.662 94.888 162.662 94.632V86.568C162.662 86.232 162.502 86.064 162.182 86.064C162.022 86.064 161.782 86.128 161.462 86.256L161.318 85.728L164.39 84.648H164.918V86.856C165.142 86.168 165.542 85.6 166.118 85.152C166.694 84.704 167.334 84.48 168.038 84.48ZM171.909 89.808C171.893 89.936 171.885 90.128 171.885 90.384C171.885 91.888 172.237 93.096 172.941 94.008C173.661 94.92 174.605 95.376 175.773 95.376C176.829 95.376 177.701 95.104 178.389 94.56C179.077 94 179.525 93.144 179.733 91.992H180.429C180.301 93.272 179.821 94.304 178.989 95.088C178.157 95.856 176.989 96.24 175.485 96.24C173.629 96.24 172.181 95.736 171.141 94.728C170.117 93.704 169.605 92.248 169.605 90.36C169.605 88.536 170.117 87.104 171.141 86.064C172.181 85.008 173.605 84.48 175.413 84.48C177.077 84.48 178.341 84.928 179.205 85.824C180.085 86.704 180.525 87.848 180.525 89.256V89.808H171.909ZM175.485 85.392C174.541 85.392 173.773 85.704 173.181 86.328C172.589 86.952 172.197 87.8 172.005 88.872H178.533C178.501 87.976 178.237 87.176 177.741 86.472C177.261 85.752 176.509 85.392 175.485 85.392ZM187.093 96.24C185.509 96.24 184.261 95.752 183.349 94.776C182.453 93.8 182.005 92.248 182.005 90.12C182.005 88.904 182.221 87.872 182.653 87.024C183.101 86.176 183.701 85.544 184.453 85.128C185.221 84.696 186.093 84.48 187.069 84.48C188.845 84.48 190.149 85.04 190.981 86.16V80.736C190.981 80.4 190.821 80.232 190.501 80.232C190.341 80.232 190.101 80.296 189.781 80.424L189.637 79.872L192.637 78.792H193.237V94.344C193.237 94.632 193.317 94.848 193.477 94.992C193.653 95.12 193.909 95.184 194.245 95.184H194.797V95.736L191.389 96.096L191.269 94.224C190.469 95.568 189.077 96.24 187.093 96.24ZM187.717 95.328C188.389 95.328 188.973 95.176 189.469 94.872C189.965 94.552 190.341 94.136 190.597 93.624C190.869 93.096 191.005 92.544 191.005 91.968V88.32C191.005 87.776 190.845 87.288 190.525 86.856C190.221 86.408 189.829 86.064 189.349 85.824C188.869 85.568 188.373 85.44 187.861 85.44C186.677 85.44 185.773 85.848 185.149 86.664C184.541 87.464 184.237 88.64 184.237 90.192C184.237 93.616 185.397 95.328 187.717 95.328ZM214.351 95.376C214.575 95.376 214.863 95.312 215.215 95.184V95.592C214.719 96.024 214.039 96.24 213.175 96.24C212.695 96.24 212.303 96.112 211.999 95.856C211.711 95.584 211.567 95.192 211.567 94.68V94.2C211.215 94.776 210.671 95.264 209.935 95.664C209.215 96.048 208.399 96.24 207.487 96.24C206.159 96.24 205.143 95.952 204.439 95.376C203.735 94.784 203.383 93.992 203.383 93V86.568C203.383 86.392 203.335 86.264 203.239 86.184C203.143 86.104 203.031 86.064 202.903 86.064C202.743 86.064 202.503 86.128 202.183 86.256L202.015 85.728L205.015 84.648H205.639V92.712C205.639 93.56 205.855 94.2 206.287 94.632C206.719 95.064 207.335 95.28 208.135 95.28C208.695 95.28 209.239 95.144 209.767 94.872C210.295 94.584 210.727 94.16 211.063 93.6C211.399 93.04 211.567 92.368 211.567 91.584V86.568C211.567 86.392 211.511 86.264 211.399 86.184C211.303 86.104 211.191 86.064 211.063 86.064C210.935 86.064 210.695 86.128 210.343 86.256L210.175 85.728L213.271 84.648H213.799V94.608C213.799 95.12 213.983 95.376 214.351 95.376ZM221.636 96.24C219.828 96.24 218.548 95.736 217.796 94.728L217.532 96.192H216.932V92.616H217.532C217.708 93.448 218.1 94.112 218.708 94.608C219.316 95.088 220.076 95.328 220.988 95.328C221.916 95.328 222.628 95.16 223.124 94.824C223.636 94.488 223.892 94 223.892 93.36C223.892 92.864 223.668 92.48 223.22 92.208C222.772 91.92 222.084 91.616 221.156 91.296C220.292 90.976 219.588 90.68 219.044 90.408C218.516 90.12 218.06 89.736 217.676 89.256C217.292 88.76 217.1 88.136 217.1 87.384C217.1 86.456 217.46 85.744 218.18 85.248C218.9 84.736 219.908 84.48 221.204 84.48C221.924 84.48 222.628 84.6 223.316 84.84C224.004 85.08 224.532 85.432 224.9 85.896L225.164 84.48H225.764V87.96H225.164C224.972 87.208 224.588 86.6 224.012 86.136C223.452 85.672 222.732 85.44 221.852 85.44C221.084 85.44 220.468 85.592 220.004 85.896C219.54 86.2 219.308 86.616 219.308 87.144C219.308 87.72 219.548 88.168 220.028 88.488C220.524 88.808 221.268 89.136 222.26 89.472C223.108 89.776 223.788 90.056 224.3 90.312C224.812 90.552 225.244 90.904 225.596 91.368C225.964 91.816 226.148 92.392 226.148 93.096C226.148 94.152 225.724 94.944 224.876 95.472C224.044 95.984 222.964 96.24 221.636 96.24ZM230.362 89.808C230.346 89.936 230.338 90.128 230.338 90.384C230.338 91.888 230.69 93.096 231.394 94.008C232.114 94.92 233.058 95.376 234.226 95.376C235.282 95.376 236.154 95.104 236.842 94.56C237.53 94 237.978 93.144 238.186 91.992H238.882C238.754 93.272 238.274 94.304 237.442 95.088C236.61 95.856 235.442 96.24 233.938 96.24C232.082 96.24 230.634 95.736 229.594 94.728C228.57 93.704 228.058 92.248 228.058 90.36C228.058 88.536 228.57 87.104 229.594 86.064C230.634 85.008 232.058 84.48 233.866 84.48C235.53 84.48 236.794 84.928 237.658 85.824C238.538 86.704 238.978 87.848 238.978 89.256V89.808H230.362ZM233.938 85.392C232.994 85.392 232.226 85.704 231.634 86.328C231.042 86.952 230.65 87.8 230.458 88.872H236.986C236.954 87.976 236.69 87.176 236.194 86.472C235.714 85.752 234.962 85.392 233.938 85.392ZM247.562 84.48C248.026 84.48 248.418 84.568 248.738 84.744C249.074 84.904 249.242 85.16 249.242 85.512C249.242 85.816 249.162 86.048 249.002 86.208C248.858 86.368 248.65 86.448 248.378 86.448C248.202 86.448 248.058 86.416 247.946 86.352C247.85 86.288 247.762 86.2 247.682 86.088C247.57 85.976 247.466 85.896 247.37 85.848C247.274 85.784 247.138 85.752 246.962 85.752C246.546 85.752 246.146 85.904 245.762 86.208C245.394 86.512 245.09 86.952 244.85 87.528C244.61 88.104 244.474 88.768 244.442 89.52V94.632C244.442 94.888 244.562 95.08 244.802 95.208C245.042 95.336 245.354 95.4 245.738 95.4H246.146V96H240.458V95.4H240.914C241.298 95.4 241.602 95.336 241.826 95.208C242.066 95.08 242.186 94.888 242.186 94.632V86.568C242.186 86.232 242.026 86.064 241.706 86.064C241.546 86.064 241.306 86.128 240.986 86.256L240.842 85.728L243.914 84.648H244.442V86.856C244.666 86.168 245.066 85.6 245.642 85.152C246.218 84.704 246.858 84.48 247.562 84.48ZM255.081 96.24C253.273 96.24 251.993 95.736 251.241 94.728L250.977 96.192H250.377V92.616H250.977C251.153 93.448 251.545 94.112 252.153 94.608C252.761 95.088 253.521 95.328 254.433 95.328C255.361 95.328 256.073 95.16 256.569 94.824C257.081 94.488 257.337 94 257.337 93.36C257.337 92.864 257.113 92.48 256.665 92.208C256.217 91.92 255.529 91.616 254.601 91.296C253.737 90.976 253.033 90.68 252.489 90.408C251.961 90.12 251.505 89.736 251.121 89.256C250.737 88.76 250.545 88.136 250.545 87.384C250.545 86.456 250.905 85.744 251.625 85.248C252.345 84.736 253.353 84.48 254.649 84.48C255.369 84.48 256.073 84.6 256.761 84.84C257.449 85.08 257.977 85.432 258.345 85.896L258.609 84.48H259.209V87.96H258.609C258.417 87.208 258.033 86.6 257.457 86.136C256.897 85.672 256.177 85.44 255.297 85.44C254.529 85.44 253.913 85.592 253.449 85.896C252.985 86.2 252.753 86.616 252.753 87.144C252.753 87.72 252.993 88.168 253.473 88.488C253.969 88.808 254.713 89.136 255.705 89.472C256.553 89.776 257.233 90.056 257.745 90.312C258.257 90.552 258.689 90.904 259.041 91.368C259.409 91.816 259.593 92.392 259.593 93.096C259.593 94.152 259.169 94.944 258.321 95.472C257.489 95.984 256.409 96.24 255.081 96.24Z" fill="#0F0F0F"/>
</svg>
