<svg width="116" height="115" viewBox="0 0 116 115" fill="none" xmlns="http://www.w3.org/2000/svg">
<path d="M84.3542 57.5L93.6357 62.8129C96.6375 64.5574 98.8214 67.4081 99.7108 70.7429C100.6 74.0777 100.123 77.6258 98.3831 80.6131C96.6432 83.6003 93.782 85.7841 90.424 86.6878C87.0659 87.5916 83.4835 87.142 80.4586 85.4371L71.1771 80.1243V90.75C71.1771 94.2144 69.7889 97.5369 67.3177 99.9866C64.8465 102.436 61.4948 103.812 58.0001 103.812C54.5053 103.812 51.1536 102.436 48.6825 99.9866C46.2113 97.5369 44.823 94.2144 44.823 90.75V80.1243M84.3542 57.5L93.6357 52.1871C96.6375 50.4426 98.8214 47.5919 99.7108 44.2571C100.6 40.9223 100.123 37.3742 98.3831 34.3869C96.6432 31.3997 93.782 29.2159 90.424 28.3122C87.0659 27.4084 83.4835 27.858 80.4586 29.5629L71.1771 34.8757V24.25C71.1771 20.7856 69.7889 17.4631 67.3177 15.0134C64.8465 12.5637 61.4948 11.1875 58.0001 11.1875C54.5053 11.1875 51.1536 12.5637 48.6825 15.0134C46.2113 17.4631 44.823 20.7856 44.823 24.25V34.8757M84.3542 57.5L44.823 34.8757M84.3542 57.5L44.823 80.1243M44.823 34.8757L35.5415 29.5629C32.5166 27.858 28.9342 27.4084 25.5762 28.3122C22.2181 29.2159 19.3569 31.3997 17.6171 34.3869C15.8772 37.3742 15.3999 40.9223 16.2893 44.2571C17.1787 47.5919 19.3626 50.4426 22.3644 52.1871L31.6459 57.5L22.3644 62.8129C19.3626 64.5574 17.1787 67.4081 16.2893 70.7429C15.3999 74.0777 15.8772 77.6258 17.6171 80.6131C19.3569 83.6003 22.2181 85.7841 25.5762 86.6878C28.9342 87.5916 32.5166 87.142 35.5415 85.4371L44.823 80.1243" stroke="black" stroke-linecap="round" stroke-linejoin="round"/>
</svg>
