<svg width="14" height="14" viewBox="0 0 14 14" fill="none" xmlns="http://www.w3.org/2000/svg">
<path d="M10.7516 7L12.0729 7.68831C12.5002 7.91432 12.8111 8.28364 12.9377 8.71568C13.0643 9.14772 12.9963 9.6074 12.7487 9.99441C12.501 10.3814 12.0937 10.6643 11.6157 10.7814C11.1376 10.8985 10.6277 10.8403 10.1971 10.6194L8.87581 9.93108V11.3077C8.87581 11.7565 8.67818 12.187 8.3264 12.5043C7.97461 12.8217 7.49749 13 7 13C6.5025 13 6.02539 12.8217 5.6736 12.5043C5.32182 12.187 5.12419 11.7565 5.12419 11.3077V9.93108M10.7516 7L12.0729 6.31169C12.5002 6.08568 12.8111 5.71636 12.9377 5.28432C13.0643 4.85228 12.9963 4.3926 12.7487 4.00559C12.501 3.61859 12.0937 3.33567 11.6157 3.21858C11.1376 3.10149 10.6277 3.15974 10.1971 3.38062L8.87581 4.06892V2.69231C8.87581 2.24348 8.67818 1.81303 8.3264 1.49567C7.97461 1.1783 7.49749 1 7 1C6.5025 1 6.02539 1.1783 5.6736 1.49567C5.32182 1.81303 5.12419 2.24348 5.12419 2.69231V4.06892M10.7516 7L5.12419 4.06892M10.7516 7L5.12419 9.93108M5.12419 4.06892L3.80294 3.38062C3.37233 3.15974 2.86237 3.10149 2.38433 3.21858C1.9063 3.33567 1.499 3.61859 1.25133 4.00559C1.00365 4.3926 0.935705 4.85228 1.06232 5.28432C1.18892 5.71636 1.49981 6.08568 1.92713 6.31169L3.24838 7L1.92713 7.68831C1.49981 7.91432 1.18892 8.28364 1.06232 8.71568C0.935705 9.14772 1.00365 9.6074 1.25133 9.99441C1.499 10.3814 1.9063 10.6643 2.38433 10.7814C2.86237 10.8985 3.37233 10.8403 3.80294 10.6194L5.12419 9.93108" stroke="white" stroke-linecap="round" stroke-linejoin="round"/>
</svg>
