<svg width="48" height="48" viewBox="0 0 48 48" fill="none" xmlns="http://www.w3.org/2000/svg">
<path d="M34.9999 24L38.8739 26.237C40.1268 26.9715 41.0384 28.1718 41.4096 29.5759C41.7808 30.9801 41.5816 32.474 40.8554 33.7318C40.1292 34.9896 38.935 35.9091 37.5333 36.2896C36.1317 36.6702 34.6365 36.4808 33.3739 35.763L29.4999 33.526V38C29.4999 39.4587 28.9204 40.8576 27.889 41.8891C26.8575 42.9205 25.4586 43.5 23.9999 43.5C22.5412 43.5 21.1423 42.9205 20.1108 41.8891C19.0794 40.8576 18.4999 39.4587 18.4999 38V33.526M34.9999 24L38.8739 21.763C40.1268 21.0285 41.0384 19.8282 41.4096 18.4241C41.7808 17.0199 41.5816 15.526 40.8554 14.2682C40.1292 13.0104 38.935 12.0909 37.5333 11.7104C36.1317 11.3298 34.6365 11.5192 33.3739 12.237L29.4999 14.474V10C29.4999 8.54131 28.9204 7.14236 27.889 6.11091C26.8575 5.07946 25.4586 4.5 23.9999 4.5C22.5412 4.5 21.1423 5.07946 20.1108 6.11091C19.0794 7.14236 18.4999 8.54131 18.4999 10V14.474M34.9999 24L18.4999 14.474M34.9999 24L18.4999 33.526M18.4999 14.474L14.6259 12.237C13.3633 11.5192 11.8681 11.3298 10.4664 11.7104C9.0648 12.0909 7.87058 13.0104 7.14438 14.2682C6.41818 15.526 6.21895 17.0199 6.59018 18.4241C6.96141 19.8282 7.87295 21.0285 9.12589 21.763L12.9999 24L9.12589 26.237C7.87295 26.9715 6.96141 28.1718 6.59018 29.5759C6.21895 30.9801 6.41818 32.474 7.14438 33.7318C7.87058 34.9896 9.0648 35.9091 10.4664 36.2896C11.8681 36.6702 13.3633 36.4808 14.6259 35.763L18.4999 33.526" stroke="black" stroke-linecap="round" stroke-linejoin="round"/>
</svg>
