<svg width="10" height="8" viewBox="0 0 10 8" fill="none" xmlns="http://www.w3.org/2000/svg">
<path d="M5.00045 0C3.64255 0 3.4721 0.00475996 2.9388 0.0241598C2.4065 0.0436796 2.04315 0.111079 1.72525 0.209998C1.39635 0.312157 1.1174 0.448835 0.8395 0.671233C0.56135 0.893591 0.3905 1.11675 0.2624 1.37975C0.1384 1.63414 0.05405 1.92494 0.0301 2.35058C0.00624996 2.77725 0 2.91365 0 4C0 5.08635 0.006 5.22227 0.0302 5.6489C0.0547 6.07474 0.13895 6.36542 0.2625 6.61973C0.3903 6.88285 0.56115 7.10601 0.83915 7.32833C1.117 7.55085 1.39595 7.68784 1.7246 7.79C2.04275 7.88892 2.40615 7.95632 2.93835 7.97584C3.4717 7.99524 3.642 8 4.99985 8C6.3579 8 6.5278 7.99524 7.0611 7.97584C7.5934 7.95632 7.95715 7.88892 8.2753 7.79C8.60405 7.68784 8.8826 7.55085 9.1604 7.32833C9.43855 7.10601 9.60935 6.88285 9.7375 6.61985C9.8604 6.36542 9.9448 6.07466 9.9698 5.64898C9.99375 5.22235 10 5.08635 10 4C10 2.91365 9.99375 2.77733 9.9698 2.35066C9.9448 1.92482 9.8604 1.63418 9.7375 1.37987C9.60935 1.11675 9.43855 0.893591 9.1604 0.671233C8.8823 0.448755 8.60415 0.312077 8.275 0.210038C7.95625 0.111079 7.5927 0.0436396 7.0604 0.0241598C6.52705 0.00475996 6.35725 0 4.9989 0H5.00045ZM4.5519 0.720833C4.68505 0.720673 4.8336 0.720833 5.00045 0.720833C6.3355 0.720833 6.4937 0.724673 7.0209 0.743833C7.5084 0.761672 7.773 0.826832 7.94925 0.881591C8.1826 0.954071 8.34895 1.04075 8.52385 1.18079C8.69885 1.32079 8.80715 1.45411 8.898 1.64078C8.96645 1.78158 9.048 1.99326 9.0702 2.38326C9.09415 2.80493 9.09935 2.93157 9.09935 3.99908C9.09935 5.06659 9.09415 5.19327 9.0702 5.6149C9.0479 6.0049 8.96645 6.21658 8.898 6.35742C8.8074 6.54409 8.69885 6.67701 8.52385 6.81693C8.34885 6.95693 8.1827 7.04357 7.94925 7.11609C7.7732 7.17109 7.5084 7.23609 7.0209 7.25393C6.4938 7.27309 6.3355 7.27725 5.00045 7.27725C3.66535 7.27725 3.5071 7.27309 2.98005 7.25393C2.49255 7.23593 2.22795 7.17077 2.05155 7.11601C1.81825 7.04349 1.65155 6.95685 1.47655 6.81685C1.30155 6.67685 1.19325 6.54385 1.1024 6.3571C1.03395 6.21626 0.9524 6.00458 0.9302 5.61458C0.90625 5.19291 0.90145 5.06627 0.90145 3.99808C0.90145 2.92993 0.90625 2.80393 0.9302 2.38226C0.9525 1.99226 1.03395 1.78058 1.1024 1.63958C1.19305 1.45291 1.30155 1.31959 1.4766 1.17959C1.6516 1.03959 1.81825 0.952911 2.0516 0.880271C2.22785 0.825272 2.49255 0.760272 2.98005 0.742353C3.4413 0.725673 3.62005 0.720673 4.5519 0.719833V0.720833ZM7.66945 1.38499C7.3382 1.38499 7.06945 1.59978 7.06945 1.86482C7.06945 2.12982 7.3382 2.34482 7.66945 2.34482C8.0007 2.34482 8.26945 2.12982 8.26945 1.86482C8.26945 1.59982 8.0007 1.38499 7.66945 1.38499ZM5.00045 1.94582C3.58245 1.94582 2.43275 2.86557 2.43275 4C2.43275 5.13443 3.58245 6.05374 5.00045 6.05374C6.4185 6.05374 7.5678 5.13443 7.5678 4C7.5678 2.86561 6.4185 1.94582 5.00045 1.94582ZM5.00045 2.66665C5.9209 2.66665 6.66715 3.26357 6.66715 4C6.66715 4.73635 5.9209 5.33335 5.00045 5.33335C4.07995 5.33335 3.3338 4.73635 3.3338 4C3.3338 3.26357 4.07995 2.66665 5.00045 2.66665Z" fill="white"/>
</svg>
