<svg width="21" height="21" viewBox="0 0 21 21" fill="none" xmlns="http://www.w3.org/2000/svg">
<path d="M17.1167 21H20.5316C20.6553 21 20.774 20.9508 20.8615 20.8631C20.949 20.7755 20.9982 20.6566 20.9982 20.5326L21 13.3051C21 9.52746 20.1874 6.62379 15.7806 6.62379C14.1053 6.56138 12.5256 7.42646 11.6731 8.87099C11.6689 8.87801 11.6626 8.88347 11.655 8.88653C11.6475 8.8896 11.6391 8.8901 11.6312 8.88797C11.6234 8.88584 11.6164 8.88118 11.6114 8.87472C11.6065 8.86826 11.6037 8.86034 11.6037 8.85217V7.44002C11.6037 7.31604 11.5545 7.19713 11.467 7.10946C11.3795 7.02179 11.2608 6.97254 11.137 6.97254H7.89635C7.77258 6.97254 7.65388 7.02179 7.56637 7.10946C7.47885 7.19713 7.42968 7.31604 7.42968 7.44002V20.5319C7.42968 20.6559 7.47885 20.7748 7.56637 20.8625C7.65388 20.9502 7.77258 20.9994 7.89635 20.9994H11.311C11.4347 20.9994 11.5534 20.9502 11.6409 20.8625C11.7285 20.7748 11.7776 20.6559 11.7776 20.5319V14.0604C11.7776 12.2306 12.1241 10.4585 14.3887 10.4585C16.6211 10.4585 16.6501 12.5523 16.6501 14.1789V20.5325C16.6501 20.6565 16.6992 20.7754 16.7868 20.8631C16.8743 20.9507 16.993 21 17.1167 21ZM0 2.52769C0 3.91425 1.13948 5.05515 2.52373 5.05515C3.90763 5.05503 5.04642 3.91343 5.04642 2.52711C5.04618 1.14078 3.90728 0 2.52327 0C1.1389 0 0 1.14113 0 2.52769ZM0.811883 21H4.23103C4.3548 21 4.4735 20.9507 4.56102 20.8631C4.64853 20.7754 4.6977 20.6565 4.6977 20.5325V7.44002C4.6977 7.31604 4.64853 7.19713 4.56102 7.10946C4.4735 7.02179 4.3548 6.97254 4.23103 6.97254H0.811883C0.688116 6.97254 0.569417 7.02179 0.4819 7.10946C0.394383 7.19713 0.345217 7.31604 0.345217 7.44002V20.5325C0.345217 20.6565 0.394383 20.7754 0.4819 20.8631C0.569417 20.9507 0.688116 21 0.811883 21Z" fill="white"/>
</svg>
