<svg width="10" height="8" viewBox="0 0 10 8" fill="none" xmlns="http://www.w3.org/2000/svg">
<path d="M8.15083 8H9.77694C9.83587 8 9.89239 7.98124 9.93406 7.94785C9.97573 7.91447 9.99915 7.86918 9.99917 7.82196L10 5.0686C10 3.62951 9.61306 2.52335 7.51456 2.52335C6.71683 2.49957 5.96456 2.82913 5.55861 3.37943C5.55663 3.3821 5.55361 3.38418 5.55001 3.38535C5.54641 3.38651 5.54244 3.38671 5.53869 3.38589C5.53494 3.38508 5.53163 3.38331 5.52926 3.38085C5.52689 3.37838 5.52559 3.37537 5.52556 3.37226V2.83429C5.52556 2.78706 5.50214 2.74176 5.46047 2.70837C5.41879 2.67497 5.36227 2.6562 5.30333 2.6562H3.76017C3.70123 2.6562 3.64471 2.67497 3.60303 2.70837C3.56136 2.74176 3.53794 2.78706 3.53794 2.83429V7.82169C3.53794 7.86892 3.56136 7.91422 3.60303 7.94762C3.64471 7.98101 3.70123 7.99978 3.76017 7.99978H5.38617C5.4451 7.99978 5.50163 7.98101 5.5433 7.94762C5.58498 7.91422 5.60839 7.86892 5.60839 7.82169V5.35635C5.60839 4.65927 5.77339 3.98417 6.85178 3.98417C7.91483 3.98417 7.92861 4.78184 7.92861 5.4015V7.82191C7.92861 7.86914 7.95202 7.91444 7.9937 7.94784C8.03537 7.98124 8.0919 8 8.15083 8ZM0 0.96293C0 1.49114 0.542611 1.92577 1.20178 1.92577C1.86078 1.92573 2.40306 1.49083 2.40306 0.962707C2.40294 0.434583 1.86061 0 1.20156 0C0.542333 0 0 0.434716 0 0.96293ZM0.386611 8H2.01478C2.07371 8 2.13024 7.98124 2.17191 7.94784C2.21359 7.91444 2.237 7.86914 2.237 7.82191V2.83429C2.237 2.78706 2.21359 2.74176 2.17191 2.70837C2.13024 2.67497 2.07371 2.6562 2.01478 2.6562H0.386611C0.327674 2.6562 0.271151 2.67497 0.229476 2.70837C0.187802 2.74176 0.164389 2.78706 0.164389 2.83429V7.82191C0.164389 7.86914 0.187802 7.91444 0.229476 7.94784C0.271151 7.98124 0.327674 8 0.386611 8Z" fill="white"/>
</svg>
