<svg width="116" height="41" viewBox="0 0 116 41" fill="none" xmlns="http://www.w3.org/2000/svg">
<path opacity="0.99" d="M8.444 28.24C7.18 28.24 6.188 28.12 5.468 27.88C4.748 27.64 4.02 27.304 3.284 26.872C3.188 26.824 3.092 26.8 2.996 26.8C2.964 26.8 2.924 26.824 2.876 26.872C2.844 26.904 2.828 26.952 2.828 27.016V28.096H1.412V22.984H2.66C2.82 24.248 3.356 25.184 4.268 25.792C5.196 26.384 6.228 26.68 7.364 26.68C8.388 26.68 9.22 26.472 9.86 26.056C10.516 25.64 10.844 24.96 10.844 24.016C10.844 23.424 10.668 22.936 10.316 22.552C9.98 22.152 9.556 21.832 9.044 21.592C8.532 21.336 7.82 21.048 6.908 20.728C5.756 20.296 4.828 19.904 4.124 19.552C3.436 19.184 2.844 18.664 2.348 17.992C1.852 17.32 1.604 16.464 1.604 15.424C1.604 13.952 2.172 12.84 3.308 12.088C4.46 11.336 6.036 10.96 8.036 10.96C9.14 10.96 10.028 11.064 10.7 11.272C11.388 11.464 12.028 11.752 12.62 12.136C12.652 12.152 12.716 12.192 12.812 12.256C12.908 12.32 12.996 12.352 13.076 12.352C13.188 12.352 13.244 12.248 13.244 12.04V11.08H14.684V16.192H13.436C13.276 14.928 12.788 14 11.972 13.408C11.156 12.816 10.196 12.52 9.092 12.52C8.356 12.52 7.684 12.704 7.076 13.072C6.468 13.44 6.164 13.976 6.164 14.68C6.164 15.208 6.324 15.648 6.644 16C6.964 16.352 7.364 16.64 7.844 16.864C8.324 17.088 8.996 17.344 9.86 17.632C11.028 18.032 11.98 18.416 12.716 18.784C13.452 19.152 14.076 19.696 14.588 20.416C15.116 21.136 15.38 22.08 15.38 23.248C15.38 24.96 14.74 26.224 13.46 27.04C12.196 27.84 10.524 28.24 8.444 28.24ZM26.9529 25.12C26.7929 27.2 25.4169 28.24 22.8249 28.24C21.2889 28.24 20.0809 27.984 19.2009 27.472C18.3369 26.944 17.9049 26.032 17.9049 24.736V18.184H16.3929V16.72H17.9049V14.584L21.3369 13.408H22.2009V16.72H25.4889V18.184H22.2009V24.736C22.2009 26.176 22.7689 26.896 23.9049 26.896C24.4009 26.896 24.8329 26.76 25.2009 26.488C25.5689 26.2 25.7929 25.744 25.8729 25.12H26.9529ZM31.6029 28.24C30.5469 28.24 29.6669 28.024 28.9629 27.592C28.2749 27.144 27.9309 26.504 27.9309 25.672C27.9309 24.424 28.5709 23.44 29.8509 22.72C31.1309 21.984 33.0589 21.44 35.6349 21.088V20.2C35.6349 19.464 35.4269 18.92 35.0109 18.568C34.5949 18.2 34.0109 18.016 33.2589 18.016C32.8749 18.016 32.5229 18.072 32.2029 18.184C31.8989 18.28 31.6509 18.408 31.4589 18.568C31.2829 18.728 31.1949 18.872 31.1949 19C31.1949 19.08 31.2189 19.216 31.2669 19.408C31.3149 19.584 31.3389 19.72 31.3389 19.816C31.3389 20.12 31.2189 20.384 30.9789 20.608C30.7549 20.832 30.4109 20.944 29.9469 20.944C29.5469 20.944 29.1869 20.8 28.8669 20.512C28.5629 20.208 28.4109 19.8 28.4109 19.288C28.4109 18.408 28.9149 17.72 29.9229 17.224C30.9469 16.728 32.3629 16.48 34.1709 16.48C35.3069 16.48 36.3069 16.64 37.1709 16.96C38.0509 17.264 38.7309 17.696 39.2109 18.256C39.6909 18.8 39.9309 19.44 39.9309 20.176V26.008C39.9309 26.312 39.9869 26.528 40.0989 26.656C40.2109 26.784 40.3789 26.848 40.6029 26.848C40.8749 26.848 41.2029 26.784 41.5869 26.656V27.376C41.2349 27.648 40.7869 27.856 40.2429 28C39.7149 28.16 39.1629 28.24 38.5869 28.24C37.9149 28.24 37.3389 28.128 36.8589 27.904C36.3949 27.68 36.0109 27.256 35.7069 26.632C35.2109 27.192 34.5869 27.6 33.8349 27.856C33.0989 28.112 32.3549 28.24 31.6029 28.24ZM33.7389 26.68C34.0749 26.68 34.4269 26.568 34.7949 26.344C35.1629 26.104 35.4429 25.8 35.6349 25.432V22.192C34.3549 22.592 33.4589 23.08 32.9469 23.656C32.4349 24.216 32.1789 24.784 32.1789 25.36C32.1789 25.776 32.3149 26.104 32.5869 26.344C32.8589 26.568 33.2429 26.68 33.7389 26.68ZM54.8769 16.48C55.4849 16.48 56.0049 16.616 56.4369 16.888C56.8689 17.16 57.0849 17.512 57.0849 17.944C57.0849 18.36 56.9729 18.68 56.7489 18.904C56.5249 19.128 56.2129 19.24 55.8129 19.24C55.5569 19.24 55.3649 19.192 55.2369 19.096C55.1249 18.984 55.0129 18.832 54.9009 18.64C54.7729 18.432 54.6449 18.28 54.5169 18.184C54.4049 18.072 54.2129 18.016 53.9409 18.016C53.7809 18.016 53.5569 18.064 53.2689 18.16C53.7489 18.752 53.9889 19.488 53.9889 20.368C53.9889 21.616 53.4929 22.568 52.5009 23.224C51.5089 23.864 50.0689 24.184 48.1809 24.184C47.1409 24.184 46.2369 24.088 45.4689 23.896C45.1809 24.136 45.0369 24.392 45.0369 24.664C45.0369 24.872 45.1169 25.04 45.2769 25.168C45.4369 25.296 45.6769 25.36 45.9969 25.36H50.7489C51.9489 25.36 52.9169 25.624 53.6529 26.152C54.4049 26.68 54.7809 27.432 54.7809 28.408C54.7809 29.608 54.2129 30.56 53.0769 31.264C51.9409 31.984 50.2609 32.344 48.0369 32.344C46.1489 32.344 44.7169 32.096 43.7409 31.6C42.7649 31.12 42.2769 30.392 42.2769 29.416C42.2769 28.536 42.8369 27.896 43.9569 27.496C43.0449 27.176 42.5889 26.536 42.5889 25.576C42.5889 24.824 43.1169 24.096 44.1729 23.392C42.9729 22.752 42.3729 21.744 42.3729 20.368C42.3729 19.104 42.8689 18.144 43.8609 17.488C44.8689 16.816 46.3089 16.48 48.1809 16.48C49.9249 16.48 51.2849 16.768 52.2609 17.344C52.6929 17.008 53.1169 16.784 53.5329 16.672C53.9649 16.544 54.4129 16.48 54.8769 16.48ZM48.1809 22.816C48.7249 22.816 49.1169 22.592 49.3569 22.144C49.6129 21.696 49.7409 21.104 49.7409 20.368C49.7409 19.632 49.6129 19.04 49.3569 18.592C49.1169 18.144 48.7249 17.92 48.1809 17.92C47.6369 17.92 47.2369 18.144 46.9809 18.592C46.7409 19.04 46.6209 19.632 46.6209 20.368C46.6209 21.104 46.7409 21.696 46.9809 22.144C47.2369 22.592 47.6369 22.816 48.1809 22.816ZM45.8289 28.096C45.5889 28.24 45.4129 28.424 45.3009 28.648C45.2049 28.888 45.1569 29.128 45.1569 29.368C45.1569 29.896 45.4129 30.304 45.9249 30.592C46.4529 30.88 47.1729 31.024 48.0849 31.024C48.9969 31.024 49.7169 30.864 50.2449 30.544C50.7729 30.24 51.0369 29.808 51.0369 29.248C51.0369 28.832 50.8769 28.536 50.5569 28.36C50.2529 28.184 49.7169 28.096 48.9489 28.096H45.8289ZM60.8263 22.096V22.384C60.8263 23.712 61.1223 24.8 61.7143 25.648C62.3223 26.48 63.1703 26.896 64.2583 26.896C65.2983 26.896 66.1383 26.656 66.7783 26.176C67.4183 25.696 67.8423 24.936 68.0503 23.896H69.1063C68.9783 25.16 68.4423 26.2 67.4983 27.016C66.5543 27.832 65.2663 28.24 63.6343 28.24C61.3143 28.24 59.5383 27.744 58.3063 26.752C57.0743 25.744 56.4583 24.28 56.4583 22.36C56.4583 21.192 56.7223 20.168 57.2503 19.288C57.7943 18.392 58.5783 17.704 59.6023 17.224C60.6263 16.728 61.8503 16.48 63.2743 16.48C65.2103 16.48 66.6743 16.936 67.6663 17.848C68.6583 18.76 69.1543 19.936 69.1543 21.376V22.096H60.8263ZM63.3703 17.896C62.7303 17.896 62.2023 18.152 61.7863 18.664C61.3863 19.16 61.1143 19.84 60.9703 20.704H65.4103C65.4103 20.016 65.2663 19.376 64.9783 18.784C64.6903 18.192 64.1543 17.896 63.3703 17.896Z" fill="black"/>
<rect x="84.5" y="6.5" width="31" height="28" rx="14" fill="#415D43"/>
<path d="M97.548 28.444H98.94C99.82 28.444 100.26 28.132 100.26 27.508V15.508L97.212 16.828V14.884L104.724 11.884V27.508C104.724 27.828 104.828 28.068 105.036 28.228C105.244 28.372 105.58 28.444 106.044 28.444H107.412V29.5H97.548V28.444Z" fill="white"/>
</svg>
