<svg width="11" height="6" viewBox="0 0 11 6" fill="none" xmlns="http://www.w3.org/2000/svg">
<path d="M9.87385 1.49366C9.88057 1.55876 9.88057 1.62387 9.88057 1.68958C9.88057 3.69135 7.61041 6 3.45932 6V5.99877C2.23301 5.99996 1.03211 5.7642 0 5.31965C0.178322 5.33404 0.3575 5.34122 0.537167 5.34151C1.55357 5.34205 2.54073 5.11321 3.34003 4.69176C2.86909 4.68579 2.41271 4.58118 2.03468 4.39256C1.65666 4.20394 1.37589 3.94073 1.23163 3.63974C1.56975 3.6835 1.91831 3.67458 2.25048 3.61365C1.19766 3.47085 0.440183 2.8499 0.440183 2.12873V2.10953C0.754045 2.22688 1.1053 2.2919 1.46441 2.29913C0.472817 1.85425 0.167139 0.968699 0.765906 0.276324C1.33248 0.744347 2.0394 1.12713 2.84072 1.3998C3.64204 1.67248 4.51985 1.82895 5.41713 1.85905C5.32767 1.60054 5.34088 1.3308 5.45545 1.07679C5.57002 0.822792 5.78193 0.593433 6.06998 0.411657C6.97895 -0.161917 8.40852 -0.132504 9.26298 0.477334C9.76837 0.410353 10.253 0.285981 10.6961 0.109569C10.5276 0.460335 10.1751 0.758078 9.70402 0.947408C10.1514 0.912027 10.5883 0.831638 11 0.708945C10.6971 1.01341 10.3158 1.27912 9.87385 1.49366Z" fill="white"/>
</svg>
