<svg width="24" height="17" viewBox="0 0 24 17" fill="none" xmlns="http://www.w3.org/2000/svg">
<path d="M21.5429 4.23204C21.5576 4.4165 21.5576 4.60095 21.5576 4.78715C21.5576 10.4588 16.6045 17 7.5476 17V16.9965C4.87202 16.9999 2.25187 16.3319 0 15.0723C0.389067 15.1131 0.78 15.1335 1.172 15.1343C3.3896 15.1358 5.54341 14.4874 7.28733 13.2933C6.25984 13.2764 5.26409 12.98 4.43931 12.4456C3.61453 11.9112 3.00194 11.1654 2.6872 10.3126C3.4249 10.4366 4.18541 10.4113 4.91013 10.2387C2.61307 9.83408 0.9604 8.07471 0.9604 6.03139V5.977C1.64519 6.30949 2.41157 6.49373 3.19507 6.51421C1.0316 5.2537 0.364667 2.74465 1.67107 0.782919C2.90724 2.10898 4.44959 3.19353 6.19793 3.96611C7.94627 4.73869 9.8615 5.18201 11.8192 5.2673C11.624 4.53486 11.6528 3.77059 11.9028 3.05092C12.1528 2.33124 12.6151 1.68139 13.2436 1.16636C15.2268 -0.458764 18.3459 -0.375428 20.2101 1.35245C21.3128 1.16267 22.3702 0.810278 23.3369 0.310445C22.9693 1.30428 22.2001 2.14789 21.1724 2.68432C22.1485 2.58408 23.1017 2.35631 24 2.00868C23.3392 2.87133 22.5071 3.62418 21.5429 4.23204Z" fill="white"/>
</svg>
