<svg width="9" height="8" viewBox="0 0 9 8" fill="none" xmlns="http://www.w3.org/2000/svg">
<g clip-path="url(#clip0_704_135)">
<path d="M0.0376172 3.95088C0.0373711 4.64723 0.243633 5.32701 0.635766 5.9262L0 7.97355L2.37554 7.42419C3.03008 7.73895 3.76703 7.9049 4.51691 7.90515H4.51884C6.9885 7.90515 8.99895 6.1325 9 3.95405C9.00042 2.89829 8.53467 1.90552 7.68867 1.1587C6.84257 0.411969 5.71757 0.000434109 4.51884 0C2.04877 0 0.0386016 1.7724 0.0376172 3.95088ZM1.45234 5.82301L1.36364 5.69882C0.990773 5.17591 0.793969 4.57163 0.79425 3.95113C0.795023 2.14043 2.46579 0.667287 4.52025 0.667287C5.51517 0.667659 6.45019 1.00974 7.15345 1.63039C7.85668 2.2511 8.24365 3.07622 8.2434 3.9538C8.24249 5.7645 6.57169 7.23783 4.51884 7.23783H4.51737C3.84894 7.23752 3.19338 7.07919 2.62167 6.78L2.48562 6.70884L1.07592 7.03482L1.45234 5.82301Z" fill="url(#paint0_linear_704_135)"/>
<path d="M3.39869 2.29915C3.31481 2.13472 3.22653 2.1314 3.14676 2.12852C3.08144 2.12604 3.00677 2.12622 2.93217 2.12622C2.8575 2.12622 2.73617 2.151 2.63362 2.24976C2.53096 2.34861 2.2417 2.5875 2.2417 3.07336C2.2417 3.55925 2.64294 4.0288 2.69887 4.09475C2.75488 4.16058 3.47347 5.18954 4.61155 5.58539C5.55739 5.91435 5.74987 5.84892 5.95515 5.83243C6.16046 5.81599 6.61763 5.5936 6.7109 5.363C6.80424 5.13243 6.80424 4.93478 6.77626 4.89348C6.74827 4.85233 6.6736 4.82762 6.56163 4.77825C6.44962 4.72886 5.89914 4.48995 5.79652 4.45698C5.69387 4.42405 5.61923 4.40762 5.54456 4.5065C5.46989 4.60523 5.25547 4.82762 5.19011 4.89348C5.12483 4.9595 5.05947 4.96771 4.94754 4.91832C4.83549 4.86877 4.47489 4.76461 4.04708 4.42821C3.71422 4.16644 3.4895 3.84319 3.42418 3.7443C3.35886 3.64557 3.41718 3.59205 3.47333 3.54284C3.52364 3.4986 3.58534 3.42753 3.64138 3.36988C3.6972 3.31221 3.71584 3.27106 3.75317 3.2052C3.79054 3.13928 3.77184 3.0816 3.74389 3.03221C3.71584 2.98281 3.49825 2.49441 3.39869 2.29915Z" fill="white"/>
</g>
<defs>
<linearGradient id="paint0_linear_704_135" x1="450" y1="797.355" x2="450" y2="0" gradientUnits="userSpaceOnUse">
<stop stop-color="#F9F9F9"/>
<stop offset="1" stop-color="white"/>
</linearGradient>
<clipPath id="clip0_704_135">
<rect width="9" height="8" fill="white"/>
</clipPath>
</defs>
</svg>
