<svg width="38" height="40" viewBox="0 0 38 40" fill="none" xmlns="http://www.w3.org/2000/svg">
<path d="M29.9999 20L33.8739 22.237C35.1268 22.9715 36.0384 24.1718 36.4096 25.5759C36.7808 26.9801 36.5816 28.474 35.8554 29.7318C35.1292 30.9896 33.935 31.9091 32.5333 32.2896C31.1317 32.6702 29.6365 32.4808 28.3739 31.763L24.4999 29.526V34C24.4999 35.4587 23.9204 36.8576 22.889 37.8891C21.8575 38.9205 20.4586 39.5 18.9999 39.5C17.5412 39.5 16.1423 38.9205 15.1108 37.8891C14.0794 36.8576 13.4999 35.4587 13.4999 34V29.526M29.9999 20L33.8739 17.763C35.1268 17.0285 36.0384 15.8282 36.4096 14.4241C36.7808 13.0199 36.5816 11.526 35.8554 10.2682C35.1292 9.0104 33.935 8.09092 32.5333 7.71038C31.1317 7.32985 29.6365 7.51916 28.3739 8.237L24.4999 10.474V6C24.4999 4.54131 23.9204 3.14236 22.889 2.11091C21.8575 1.07946 20.4586 0.5 18.9999 0.5C17.5412 0.5 16.1423 1.07946 15.1108 2.11091C14.0794 3.14236 13.4999 4.54131 13.4999 6V10.474M29.9999 20L13.4999 10.474M29.9999 20L13.4999 29.526M13.4999 10.474L9.62589 8.237C8.36332 7.51916 6.86807 7.32985 5.46643 7.71038C4.0648 8.09092 2.87058 9.0104 2.14438 10.2682C1.41818 11.526 1.21895 13.0199 1.59018 14.4241C1.96141 15.8282 2.87295 17.0285 4.12589 17.763L7.99989 20L4.12589 22.237C2.87295 22.9715 1.96141 24.1718 1.59018 25.5759C1.21895 26.9801 1.41818 28.474 2.14438 29.7318C2.87058 30.9896 4.0648 31.9091 5.46643 32.2896C6.86807 32.6702 8.36332 32.4808 9.62589 31.763L13.4999 29.526" stroke="white" stroke-linecap="round" stroke-linejoin="round"/>
</svg>
