<svg width="20" height="21" viewBox="0 0 20 21" fill="none" xmlns="http://www.w3.org/2000/svg">
<path d="M10.0009 0.5C7.2851 0.5 6.9442 0.5119 5.8776 0.560399C4.813 0.609199 4.0863 0.777697 3.4505 1.02499C2.7927 1.28039 2.2348 1.62209 1.679 2.17808C1.1227 2.73398 0.781 3.29187 0.5248 3.94937C0.2768 4.58536 0.1081 5.31235 0.0601999 6.37644C0.0124999 7.44313 0 7.78413 0 10.5C0 13.2159 0.012 13.5557 0.0604 14.6223C0.1094 15.6868 0.2779 16.4135 0.525 17.0493C0.7806 17.7071 1.1223 18.265 1.6783 18.8208C2.234 19.3771 2.7919 19.7196 3.4492 19.975C4.0855 20.2223 4.8123 20.3908 5.8767 20.4396C6.9434 20.4881 7.284 20.5 9.9997 20.5C12.7158 20.5 13.0556 20.4881 14.1222 20.4396C15.1868 20.3908 15.9143 20.2223 16.5506 19.975C17.2081 19.7196 17.7652 19.3771 18.3208 18.8208C18.8771 18.265 19.2187 17.7071 19.475 17.0496C19.7208 16.4135 19.8896 15.6866 19.9396 14.6225C19.9875 13.5559 20 13.2159 20 10.5C20 7.78413 19.9875 7.44333 19.9396 6.37664C19.8896 5.31205 19.7208 4.58546 19.475 3.94967C19.2187 3.29187 18.8771 2.73398 18.3208 2.17808C17.7646 1.62189 17.2083 1.28019 16.55 1.02509C15.9125 0.777697 15.1854 0.609099 14.1208 0.560399C13.0541 0.5119 12.7145 0.5 9.9978 0.5H10.0009ZM9.1038 2.30208C9.3701 2.30168 9.6672 2.30208 10.0009 2.30208C12.671 2.30208 12.9874 2.31168 14.0418 2.35958C15.0168 2.40418 15.546 2.56708 15.8985 2.70398C16.3652 2.88518 16.6979 3.10187 17.0477 3.45197C17.3977 3.80197 17.6143 4.13526 17.796 4.60196C17.9329 4.95396 18.096 5.48315 18.1404 6.45814C18.1883 7.51233 18.1987 7.82893 18.1987 10.4977C18.1987 13.1665 18.1883 13.4832 18.1404 14.5373C18.0958 15.5122 17.9329 16.0414 17.796 16.3935C17.6148 16.8602 17.3977 17.1925 17.0477 17.5423C16.6977 17.8923 16.3654 18.1089 15.8985 18.2902C15.5464 18.4277 15.0168 18.5902 14.0418 18.6348C12.9876 18.6827 12.671 18.6931 10.0009 18.6931C7.3307 18.6931 7.0142 18.6827 5.9601 18.6348C4.9851 18.5898 4.4559 18.4269 4.1031 18.29C3.6365 18.1087 3.3031 17.8921 2.9531 17.5421C2.6031 17.1921 2.3865 16.8596 2.2048 16.3927C2.0679 16.0406 1.9048 15.5114 1.8604 14.5365C1.8125 13.4823 1.8029 13.1657 1.8029 10.4952C1.8029 7.82483 1.8125 7.50983 1.8604 6.45564C1.905 5.48065 2.0679 4.95146 2.2048 4.59896C2.3861 4.13226 2.6031 3.79897 2.9532 3.44897C3.3032 3.09897 3.6365 2.88228 4.1032 2.70068C4.4557 2.56318 4.9851 2.40068 5.9601 2.35588C6.8826 2.31418 7.2401 2.30168 9.1038 2.29958V2.30208ZM15.3389 3.96247C14.6764 3.96247 14.1389 4.49946 14.1389 5.16205C14.1389 5.82455 14.6764 6.36204 15.3389 6.36204C16.0014 6.36204 16.5389 5.82455 16.5389 5.16205C16.5389 4.49956 16.0014 3.96247 15.3389 3.96247ZM10.0009 5.36455C7.1649 5.36455 4.8655 7.66393 4.8655 10.5C4.8655 13.3361 7.1649 15.6343 10.0009 15.6343C12.837 15.6343 15.1356 13.3361 15.1356 10.5C15.1356 7.66403 12.837 5.36455 10.0009 5.36455ZM10.0009 7.16663C11.8418 7.16663 13.3343 8.65892 13.3343 10.5C13.3343 12.3409 11.8418 13.8334 10.0009 13.8334C8.1599 13.8334 6.6676 12.3409 6.6676 10.5C6.6676 8.65892 8.1599 7.16663 10.0009 7.16663Z" fill="white"/>
</svg>
