<svg width="20" height="21" viewBox="0 0 20 21" fill="none" xmlns="http://www.w3.org/2000/svg">
<g clip-path="url(#clip0_121_132)">
<path d="M0.0835938 10.3747C0.0830469 12.1511 0.541406 13.8852 1.41281 15.4138L0 20.6366L5.27898 19.2351C6.73352 20.0381 8.37117 20.4615 10.0376 20.4621H10.0419C15.53 20.4621 19.9977 15.94 20 10.3828C20.0009 7.68951 18.9659 5.15692 17.0859 3.25176C15.2057 1.34684 12.7057 0.297006 10.0419 0.295898C4.55281 0.295898 0.0857813 4.81734 0.0835938 10.3747ZM3.22742 15.1505L3.03031 14.8337C2.20172 13.4997 1.76437 11.9582 1.765 10.3753C1.76672 5.75619 5.47953 1.99816 10.045 1.99816C12.2559 1.99911 14.3337 2.87176 15.8966 4.45505C17.4593 6.0385 18.3192 8.14339 18.3187 10.3821C18.3166 15.0012 14.6037 18.7598 10.0419 18.7598H10.0386C8.5532 18.759 7.09641 18.3551 5.82594 17.5918L5.52359 17.4103L2.39094 18.2419L3.22742 15.1505Z" fill="url(#paint0_linear_121_132)"/>
<path d="M7.55303 6.16113C7.36662 5.74165 7.17045 5.73319 6.99318 5.72583C6.84803 5.7195 6.68209 5.71998 6.51631 5.71998C6.35037 5.71998 6.08076 5.78318 5.85287 6.03512C5.62475 6.28729 4.98193 6.89669 4.98193 8.13613C4.98193 9.37565 5.87357 10.5735 5.99787 10.7417C6.12232 10.9097 7.7192 13.5346 10.2483 14.5444C12.3501 15.3836 12.7779 15.2167 13.234 15.1746C13.6903 15.1326 14.7062 14.5653 14.9135 13.9771C15.1209 13.3889 15.1209 12.8847 15.0587 12.7793C14.9965 12.6743 14.8306 12.6113 14.5818 12.4854C14.3329 12.3594 13.1096 11.7499 12.8815 11.6658C12.6534 11.5818 12.4876 11.5399 12.3216 11.7921C12.1557 12.044 11.6792 12.6113 11.534 12.7793C11.3889 12.9477 11.2437 12.9687 10.9949 12.8427C10.7459 12.7163 9.94459 12.4506 8.99389 11.5924C8.2542 10.9246 7.75482 10.1 7.60967 9.84773C7.46451 9.59587 7.59412 9.45934 7.71889 9.33381C7.83068 9.22093 7.96779 9.03963 8.09232 8.89258C8.21639 8.74545 8.25779 8.64048 8.34076 8.47247C8.42381 8.3043 8.38225 8.15717 8.32014 8.03116C8.25779 7.90516 7.77428 6.65923 7.55303 6.16113Z" fill="white"/>
</g>
<defs>
<linearGradient id="paint0_linear_121_132" x1="1000" y1="2034.37" x2="1000" y2="0.295898" gradientUnits="userSpaceOnUse">
<stop stop-color="#F9F9F9"/>
<stop offset="1" stop-color="white"/>
</linearGradient>
<clipPath id="clip0_121_132">
<rect width="20" height="20.4082" fill="white" transform="translate(0 0.295898)"/>
</clipPath>
</defs>
</svg>
